<?xml version="1.0" standalone="no"?>
<!DOCTYPE svg PUBLIC "-//W3C//DTD SVG 1.1//EN" "http://www.w3.org/Graphics/SVG/1.1/DTD/svg11.dtd">
<svg xmlns="http://www.w3.org/2000/svg">
<defs >
<font id="Murecho" horiz-adv-x="888" ><font-face
    font-family="Murecho ExtraBold"
    units-per-em="1000"
    panose-1="2 11 0 3 2 2 4 2 2 4"
    ascent="1160"
    descent="-288"
    alphabetic="0" />
<glyph unicode=" " glyph-name="space" horiz-adv-x="222" />
<glyph unicode="!" glyph-name="exclam" horiz-adv-x="317" d="M65 728H253L228 272H88L65 728ZM159 -12Q114 -12 83 19T52 95Q52 140 83 171T159 202Q204 202 234 171T265 95Q265 50 235 19T159 -12Z" />
<glyph unicode="&quot;" glyph-name="quotedbl" horiz-adv-x="520" d="M67 448L46 760H224L202 448H67ZM318 448L296 760H474L453 448H318Z" />
<glyph unicode="#" glyph-name="numbersign" horiz-adv-x="637" d="M399 642H514L444 0H329L399 642ZM55 268H572L564 154H46L55 268ZM194 642H308L237 0H123L194 642ZM73 488H590L582 374H64L73 488Z" />
<glyph unicode="$" glyph-name="dollar" horiz-adv-x="543" d="M213 89L262 9Q229 9 186 13T105 26T40 44L59 176Q96 165 145 155T247 145Q269 145 287 150T316 166T327 195Q327 219 307 235T254 265T187 294T119 332T66 388T45 475Q45 533 76 575T159 640T275
665L213 577V762H331V586L264 665Q335 666 388 658T481 636L459 502Q431 511 391 521T300 531Q274 531 257 525T232 509T224 486Q224 466 244 452T297 424T366 395T435 355T487 297T508 211Q508 153 479 109T395 38T261 9L331 96V-90H213V89Z" />
<glyph unicode="%" glyph-name="percent" horiz-adv-x="950" d="M591 673H700L339 0H230L591 673ZM227 308Q171 308 131 334T70 403T49 496Q49 547 70 589T131 658T227 684Q283 684 323 658T384 590T405 496Q405 446 384 403T323 334T227 308ZM227 398Q255 398
266 425T278 496Q278 540 267 567T227 594Q200 594 188 567T176 496Q176 453 188 426T227 398ZM702 -11Q646 -11 607 15T546 84T525 177Q525 228 546 270T606 339T702 365Q760 365 799 339T859 271T880 177Q880 127 860 84T800 15T702 -11ZM702 79Q730 79 742 106T754
177Q754 221 742 248T702 275Q676 275 664 248T651 177Q651 134 663 107T702 79Z" />
<glyph unicode="&amp;" glyph-name="ampersand" horiz-adv-x="737" d="M212 345Q176 382 156 417T126 485T116 546Q116 602 143 645T218 714T327 740Q381 740 427 720T502 659T531 563Q531 530 517 496T470 429T385 366L301 453Q323 469 339 485T363 520T372 560Q372
588 361 606T327 625Q313 625 302 616T286 593T281 561Q281 540 288 521T309 482T340 445L667 99L548 -11L212 345ZM290 -11Q220 -11 168 15T87 86T58 185Q58 256 99 311T206 402L290 308Q275 297 262 283T241 251T233 211Q233 182 246 164T279 137T323 129Q352
129 375 142T415 181L518 92Q471 45 417 17T290 -11ZM472 224Q505 263 518 312T531 415H693Q691 332 654 260T564 133L472 224Z" />
<glyph unicode="&apos;" glyph-name="quotesingle" horiz-adv-x="269" d="M67 448L46 760H224L202 448H67Z" />
<glyph unicode="(" glyph-name="parenleft" horiz-adv-x="377" d="M222 -119Q169 -64 130 11T68 175T46 360Q46 456 68 545T129 709T222 839H337Q290 780 258 703T208 538T191 360Q191 270 208 183T257 18T337 -119H222Z" />
<glyph unicode=")" glyph-name="parenright" horiz-adv-x="377" d="M39 -119Q86 -60 118 17T167 182T184 360Q184 450 167 537T118 702T39 839H153Q207 784 246 709T308 545T330 360Q330 265 308 176T247 11T153 -119H39Z" />
<glyph unicode="*" glyph-name="asterisk" horiz-adv-x="482" d="M216 525L179 727Q238 741 295 727L258 525L295 323Q238 308 179 323L216 525ZM227 507L34 576Q50 635 92 675L247 543L441 473Q434 445 420 420T384 374L227 507ZM247 507L92 374Q50 415 34 473L227
543L383 675Q405 654 419 629T441 576L247 507ZM237 454Q208 454 188 475T167 525Q167 554 187 574T237 595Q266 595 286 575T307 525Q307 496 287 475T237 454Z" />
<glyph unicode="+" glyph-name="plus" horiz-adv-x="583" d="M236 81V559H346V81H236ZM52 375H530V265H52V375Z" />
<glyph unicode="," glyph-name="comma" horiz-adv-x="291" d="M23 -121L60 181H238L158 -140L23 -121Z" />
<glyph unicode="-" glyph-name="hyphen" horiz-adv-x="430" d="M41 341H389V216H41V341Z" />
<glyph unicode="." glyph-name="period" horiz-adv-x="291" d="M157 -12Q112 -12 82 19T51 96Q51 140 81 171T157 202Q202 202 233 171T264 96Q264 50 233 19T157 -12Z" />
<glyph unicode="/" glyph-name="slash" horiz-adv-x="416" d="M279 740H407L149 -26H21L279 740Z" />
<glyph unicode="0" glyph-name="zero" horiz-adv-x="621" d="M310 -12Q217 -12 156 35T65 163T35 347Q35 449 65 529T156 657T310 704Q404 704 464 657T554 530T584 347Q584 244 555 163T465 35T310 -12ZM310 130Q342 130 361 151T390 220T399 347Q399 425 390
472T362 541T310 563Q279 563 259 542T230 473T220 347Q220 268 229 221T258 152T310 130Z" />
<glyph unicode="1" glyph-name="one" horiz-adv-x="525" d="M215 524H212L47 454V601L254 696H395V0H215V524Z" />
<glyph unicode="2" glyph-name="two" horiz-adv-x="597" d="M42 110Q112 172 169 220T267 309T331 388T353 463Q353 493 341 514T305 546T249 557Q211 557 173 546T99 516L50 642Q92 665 153 684T284 704Q362 704 418 678T506 601T537 480Q537 419 510 369T438
275T344 194T249 121L220 147L547 146L539 0H42V110Z" />
<glyph unicode="3" glyph-name="three" horiz-adv-x="574" d="M253 -11Q185 -11 125 5T28 40L65 169Q96 159 143 147T239 135Q279 135 304 145T342 174T355 216Q355 235 347 250T322 275T282 290T231 296H164L170 429H226Q246 429 266 432T302 442T329 462T339
494Q339 519 317 539T237 560Q199 560 161 552T93 533L63 661Q102 679 160 692T279 705Q349 705 403 684T489 624T520 529Q520 471 487 430T384 367V365Q430 358 465 335T521 277T542 196Q542 134 505 88T402 15T253 -11Z" />
<glyph unicode="4" glyph-name="four" horiz-adv-x="602" d="M325 0V426L326 537L324 538L279 449L192 295V292H577L571 152H22V277L275 696H503V0H325Z" />
<glyph unicode="5" glyph-name="five" horiz-adv-x="581" d="M246 -11Q183 -11 127 2T35 31L64 164Q96 155 143 145T233 135Q275 135 303 146T347 178T362 224Q362 273 311 295T163 318Q138 318 119 316T77 312L76 313L109 693H508L500 547H250L241 452Q250 453
261 453T286 454Q410 454 479 398T548 240Q548 166 511 110T406 21T246 -11Z" />
<glyph unicode="6" glyph-name="six" horiz-adv-x="613" d="M313 -11Q220 -11 158 30T66 140T35 295Q35 393 68 471T163 604T310 684T498 705V564Q428 567 373 554T279 508T222 419H225Q249 441 284 453T361 465Q425 465 474 438T552 360T581 240Q581 167 548
110T454 21T313 -11ZM313 125Q337 125 356 137T386 174T397 230Q397 259 387 282T357 319T307 333Q289 333 272 328T242 312T219 286Q214 252 221 215T250 151T313 125Z" />
<glyph unicode="7" glyph-name="seven" horiz-adv-x="565" d="M273 452L320 544V546H31V693H528V577L255 0H58L273 452Z" />
<glyph unicode="8" glyph-name="eight" horiz-adv-x="617" d="M304 -11Q217 -11 156 14T64 83T32 180Q32 237 69 286T178 360L307 289Q288 288 267 276T232 243T217 196Q217 176 228 157T260 126T310 114Q339 114 358 125T388 154T399 192Q399 219 381 240T335
273T282 291L160 339V356Q108 384 82 425T55 513Q55 575 90 617T184 681T313 703Q392 703 447 678T530 611T559 521Q559 468 527 425T440 358L308 424Q322 426 339 437T369 466T382 507Q382 524 374 540T350 568T306 580Q281 580 265 570T240 544T232 512Q232 480
262 455T337 422L455 379V362Q490 348 519 325T566 269T584 194Q584 133 550 87T453 15T304 -11Z" />
<glyph unicode="9" glyph-name="nine" horiz-adv-x="613" d="M299 706Q392 706 453 665T545 555T577 400Q577 302 544 224T449 92T302 12T113 -10V132Q183 129 238 142T333 188T390 277H387Q363 255 327 243T250 230Q187 230 138 257T59 335T30 455Q30 529 64
585T158 674T299 706ZM298 570Q274 570 255 558T226 522T215 466Q215 438 224 414T254 376T304 362Q322 362 339 367T370 384T393 409Q398 443 391 480T361 544T298 570Z" />
<glyph unicode=":" glyph-name="colon" horiz-adv-x="291" d="M156 308Q111 308 81 339T51 415Q51 460 81 491T156 522Q201 522 232 491T263 415Q263 370 232 339T156 308ZM156 -12Q111 -12 81 19T51 96Q51 140 81 171T156 202Q201 202 232 171T264 96Q264 50
233 19T156 -12Z" />
<glyph unicode=";" glyph-name="semicolon" horiz-adv-x="291" d="M143 308Q98 308 68 339T38 415Q38 460 68 491T143 522Q189 522 220 491T251 415Q251 370 220 339T143 308ZM23 -121L60 181H238L158 -140L23 -121Z" />
<glyph unicode="&lt;" glyph-name="less" horiz-adv-x="565" d="M62 260V380L503 566V444L182 321V319L503 196V74L62 260Z" />
<glyph unicode="=" glyph-name="equal" horiz-adv-x="582" d="M52 500H530V389H52V500ZM52 251H530V140H52V251Z" />
<glyph unicode="&gt;" glyph-name="greater" horiz-adv-x="565" d="M62 196L382 319V321L62 444V566L503 380V260L62 74V196Z" />
<glyph unicode="?" glyph-name="question" horiz-adv-x="480" d="M137 272Q135 282 134 295T132 318Q132 353 144 377T176 420T215 454T247 487T260 528Q260 557 234 573T161 589Q139 589 121 586T88 580L80 720Q103 729 135 734T208 739Q278 739 330 718T411
657T440 564Q440 517 425 485T388 428T344 384T306 340T291 284Q291 282 291 278T291 272H137ZM214 -11Q168 -11 137 20T106 95Q106 141 137 171T214 202Q259 202 289 172T320 95Q320 51 290 20T214 -11Z" />
<glyph unicode="@" glyph-name="at" horiz-adv-x="883" d="M417 -156Q312 -156 229 -111T98 16T49 208Q49 295 80 371T169 507T304 599T476 632Q579 632 661 592T790 480T838 312Q838 240 812 179T738 80T631 42Q593 42 571 58T540 103T532 165H530Q499 99 455
68T365 37Q309 37 273 77T237 185Q237 231 254 279T305 367T388 432T500 457Q538 457 576 448T643 421Q635 373 627 330T614 249T609 183T618 140T645 125Q669 125 690 148T725 211T739 301Q739 377 707 430T617 512T479 541Q406 541 346 518T242 450T173 347T148
216Q148 130 182 67T280 -32T426 -67Q461 -67 493 -62T545 -50L563 -133Q530 -144 493 -150T417 -156ZM411 138Q423 138 435 146T459 173T481 218T498 283L513 364Q508 366 500 368T484 370Q463 370 443 356T406 318T381 263T371 203Q371 173 381 156T411 138Z"
/>
<glyph unicode="A" glyph-name="A" horiz-adv-x="659" d="M211 728H448L655 0H463L351 487L331 581H329L308 487L197 0H4L211 728ZM253 303H407L438 160H222L253 303Z" />
<glyph unicode="B" glyph-name="B" horiz-adv-x="644" d="M230 -6Q174 -6 131 -3T55 3V722Q95 724 157 727T282 731Q345 731 400 724T498 696T564 640T588 546Q588 496 557 453T465 388L466 387Q509 375 542 350T593 288T612 209Q612 149 589 108T518 42T399 6T230
-6ZM296 136Q326 136 349 141T387 157T410 184T418 223Q418 270 386 290T306 311H237V136Q251 135 264 135T296 136ZM284 442Q323 442 349 450T389 476T402 521Q402 558 377 575T310 593Q285 593 263 591T237 589V442H284Z" />
<glyph unicode="C" glyph-name="C" horiz-adv-x="617" d="M398 -12Q300 -12 230 18T116 99T51 217T30 355Q30 474 77 560T209 693T406 740Q464 740 513 731T591 708L569 561Q538 573 499 580T418 588Q364 588 320 565T250 492T225 364Q225 291 248 242T315 166T421
140Q457 140 497 147T567 165L583 18Q558 7 508 -2T398 -12Z" />
<glyph unicode="D" glyph-name="D" horiz-adv-x="714" d="M235 -6Q175 -6 131 -3T55 3V722Q107 727 168 729T288 731Q420 731 508 689T639 567T683 374Q683 236 631 153T478 32T235 -6ZM277 143Q340 143 388 164T462 235T489 370Q489 446 465 493T398 562T297
584Q280 584 266 584T240 580V145Q247 144 257 144T277 143Z" />
<glyph unicode="E" glyph-name="E" horiz-adv-x="567" d="M55 728H520L512 576H240V448H495L486 296H240V152H534L525 0H55V728Z" />
<glyph unicode="F" glyph-name="F" horiz-adv-x="551" d="M55 728H517L508 576H240V433H492L482 281H240V0H55V728Z" />
<glyph unicode="G" glyph-name="G" horiz-adv-x="692" d="M407 -12Q306 -12 235 17T118 97T52 215T30 356Q30 445 57 516T135 637T256 713T416 740Q482 740 537 728T625 703L599 553Q564 567 522 577T423 588Q381 588 345 575T282 535T240 466T225 365Q225 290
249 240T317 165T417 140Q430 140 444 142T470 146V355L546 271H376L384 413H643V28Q615 18 576 9T493 -6T407 -12Z" />
<glyph unicode="H" glyph-name="H" horiz-adv-x="712" d="M55 728H240V452H471V728H655V0H471V294H240V0H55V728Z" />
<glyph unicode="I" glyph-name="I" horiz-adv-x="296" d="M55 728H240V0H55V728Z" />
<glyph unicode="J" glyph-name="J" horiz-adv-x="296" d="M-21 -22Q13 -22 29 -16T50 12T55 78V728H240V80Q240 -6 219 -56T163 -131T82 -164T-14 -172L-21 -22Z" />
<glyph unicode="K" glyph-name="K" horiz-adv-x="655" d="M55 728H240V397L290 449L428 728H653L432 399L661 0H441L291 296L240 249V0H55V728Z" />
<glyph unicode="L" glyph-name="L" horiz-adv-x="540" d="M55 728H240V153H525L517 0H55V728Z" />
<glyph unicode="M" glyph-name="M" horiz-adv-x="893" d="M83 728H320L375 527L445 252H447L519 527L575 728H810L837 0H658L653 251L647 469H644L516 0H364L246 469H243L236 251L229 0H55L83 728Z" />
<glyph unicode="N" glyph-name="N" horiz-adv-x="713" d="M55 728H267Q324 616 377 510T486 277H489L484 466V728H657V0H461Q404 106 365 181T301 310T257 400T226 468H223L228 278V0H55V728Z" />
<glyph unicode="O" glyph-name="O" horiz-adv-x="735" d="M368 -12Q284 -12 222 17T116 98T52 218T30 364Q30 442 51 510T116 629T221 710T368 740Q451 740 513 711T619 630T683 510T705 364Q705 286 684 218T619 99T514 18T368 -12ZM368 140Q403 140 430 155T476
199T502 269T511 364Q511 417 503 458T476 529T431 573T368 588Q332 588 305 573T259 529T233 459T224 364Q224 311 232 270T259 199T304 155T368 140Z" />
<glyph unicode="P" glyph-name="P" horiz-adv-x="620" d="M55 722Q97 726 152 728T274 731Q334 731 391 722T493 687T566 617T593 498Q593 419 558 364T459 282T309 254Q291 254 273 254T237 255V0H55V722ZM280 399Q336 399 372 423T409 497Q409 544 381 565T303
586Q285 586 268 586T237 583V401Q245 401 256 400T280 399Z" />
<glyph unicode="Q" glyph-name="Q" horiz-adv-x="735" d="M368 0Q255 0 180 48T67 178T30 364Q30 442 51 509T116 629T221 710T368 740Q451 740 513 711T619 631T683 516T705 385Q705 343 696 302T669 223T624 153V151H735L727 0H368ZM368 138Q404 138 431 153T476
196T502 267T511 364Q511 418 503 459T476 529T431 573T368 588Q332 588 305 573T259 530T233 460T224 364Q224 310 233 268T260 197T305 153T368 138Z" />
<glyph unicode="R" glyph-name="R" horiz-adv-x="630" d="M55 722Q100 726 158 728T279 731Q386 731 455 709T558 638T592 512Q592 465 575 427T529 361T467 322V320L623 0H425L304 272H237V0H55V722ZM297 411Q327 411 351 421T391 451T406 501Q406 550 379 569T308
588Q285 588 268 588T237 586V411H297Z" />
<glyph unicode="S" glyph-name="S" horiz-adv-x="572" d="M255 -12Q188 -12 129 2T34 28L64 172Q102 161 151 150T247 139Q280 139 303 147T340 169T353 204Q353 228 336 244T289 275T226 304Q194 319 162 337T102 379T59 438T43 520Q43 590 79 639T178 714T322
740Q376 740 425 730T513 703L487 560Q459 570 415 579T329 589Q281 589 256 574T230 530Q230 508 247 492T294 463T356 433Q388 419 420 402T480 360T524 301T541 218Q541 148 507 96T409 16T255 -12Z" />
<glyph unicode="T" glyph-name="T" horiz-adv-x="569" d="M192 574H12L21 728H555L547 574H377V0H192V574Z" />
<glyph unicode="U" glyph-name="U" horiz-adv-x="703" d="M351 -12Q252 -12 185 24T85 130T51 304V728H235V292Q235 218 263 177T351 136Q411 136 439 177T467 292V728H651V304Q651 200 618 130T518 24T351 -12Z" />
<glyph unicode="V" glyph-name="V" horiz-adv-x="675" d="M1 728H203L300 317L336 167H338L374 317L470 728H673L451 0H222L1 728Z" />
<glyph unicode="W" glyph-name="W" horiz-adv-x="924" d="M3 728H203L243 449L275 204H277L320 449L371 728H553L603 449L647 204H649L681 449L720 728H919L769 0H553L463 466H461L370 0H154L3 728Z" />
<glyph unicode="X" glyph-name="X" horiz-adv-x="624" d="M614 0L418 374L339 387L215 728H10L206 354L286 341L409 0H614ZM215 0L339 341L418 354L614 728H409L286 387L206 374L10 0H215Z" />
<glyph unicode="Y" glyph-name="Y" horiz-adv-x="630" d="M224 272L-1 728H203L259 571L316 401H318L374 571L430 728H633L409 272V0H224V272Z" />
<glyph unicode="Z" glyph-name="Z" horiz-adv-x="585" d="M21 109L321 573V575H41L48 728H552V619L254 155V153H558L550 0H21V109Z" />
<glyph unicode="[" glyph-name="bracketleft" horiz-adv-x="338" d="M56 851H296L292 750H197V-30H296L292 -131H56V851Z" />
<glyph unicode="\" glyph-name="backslash" horiz-adv-x="425" d="M17 739H144L402 -28H275L17 739Z" />
<glyph unicode="]" glyph-name="bracketright" horiz-adv-x="339" d="M46 -30H141V750H42L46 851H282V-131H42L46 -30Z" />
<glyph unicode="^" glyph-name="asciicircum" horiz-adv-x="567" d="M230 674H335L517 296H408L284 563H282L157 296H47L230 674Z" />
<glyph unicode="_" glyph-name="underscore" horiz-adv-x="625" d="M0 -71H596V-191H0V-71Z" />
<glyph unicode="`" glyph-name="grave" horiz-adv-x="326" d="M118 599L5 744H158L230 599H118Z" />
<glyph unicode="a" glyph-name="a" horiz-adv-x="562" d="M192 -12Q143 -12 106 9T47 66T26 147Q26 184 38 212T73 260T132 289T214 299H326V337Q326 350 322 360T309 378T285 390T248 394Q204 394 161 384T88 363L59 489Q83 500 119 509T197 525T281 532Q346
532 390 520T460 485T497 425T509 342V120Q509 89 511 56T515 0H383L346 58H343Q312 24 273 6T192 -12ZM258 110Q276 110 298 120T329 145V202H246Q237 202 229 200T215 193T204 179T200 157Q200 134 216 122T258 110Z" />
<glyph unicode="b" glyph-name="b" horiz-adv-x="607" d="M357 -12Q327 -12 302 -4T257 20T219 62H217L175 0H47Q48 17 49 41T50 93T51 144T51 183V748L235 752V468H237Q254 489 290 510T376 532Q438 532 483 500T553 410T577 273Q577 187 548 123T468 24T357
-12ZM305 130Q336 130 354 149T380 198T388 264Q388 313 376 339T346 376T307 387Q292 387 278 382T253 368T235 348V196Q236 179 245 164T270 140T305 130Z" />
<glyph unicode="c" glyph-name="c" horiz-adv-x="491" d="M307 -12Q224 -12 162 19T64 111T29 257Q29 336 62 397T162 495T327 531Q358 531 395 526T466 508L448 374Q428 380 399 386T337 392Q303 392 276 379T232 337T216 262Q216 213 235 184T284 142T346 129Q376
129 405 134T457 145L470 14Q441 3 395 -4T307 -12Z" />
<glyph unicode="d" glyph-name="d" horiz-adv-x="606" d="M243 -12Q179 -12 131 22T56 118T29 257Q29 339 56 400T130 497T241 532Q280 532 314 518T368 478H370V748L554 752V164Q554 144 554 112T555 49T558 0H430L389 64H387Q362 28 327 8T243 -12ZM300 131Q330
131 349 151T370 196V356Q357 374 337 382T301 391Q278 391 259 376T228 331T216 259Q216 215 227 187T258 145T300 131Z" />
<glyph unicode="e" glyph-name="e" horiz-adv-x="552" d="M306 -12Q217 -12 155 18T61 108T29 253Q29 306 44 355T92 445T175 509T295 532Q366 532 414 506T488 436T521 334T518 212H125L225 286Q200 226 209 191T252 139T332 123Q368 123 408 130T481 146L499
21Q455 5 404 -3T306 -12ZM126 308H357Q358 312 358 315T358 321Q358 342 353 361T332 394T290 407Q257 407 238 387T212 334T214 268L126 308Z" />
<glyph unicode="f" glyph-name="f" horiz-adv-x="364" d="M74 388H13L21 514L74 520V540Q74 642 131 700T290 759Q312 759 334 757T375 751L361 613Q354 614 348 614T334 614Q306 614 289 604T264 577T256 537V520H353L345 388H259V0H74V388Z" />
<glyph unicode="g" glyph-name="g" horiz-adv-x="572" d="M271 137Q206 137 151 160T63 228T30 333Q30 395 62 439T150 508T271 532Q337 532 392 508T480 440T513 333Q513 273 481 229T395 161T271 137ZM271 249Q293 249 307 259T329 288T336 333Q336 360 329
379T308 408T271 418Q250 418 236 408T214 379T207 333Q207 307 214 288T236 259T271 249ZM260 -235Q215 -235 169 -228T83 -204T21 -160T-3 -93Q-3 -49 20 -23T79 21V23Q58 36 50 51T41 85Q41 116 65 143T120 193L188 161Q180 152 175 144T170 125Q170 114 181
109T216 102L344 94Q377 92 414 87T485 68T540 28T561 -43Q561 -91 528 -135T429 -207T260 -235ZM273 -101Q318 -101 346 -95T386 -78T399 -57Q399 -48 393 -43T375 -34T349 -29T319 -26L214 -18Q195 -16 181 -13T157 -4L169 -6Q160 -11 151 -21T142 -44Q142 -59
151 -69T178 -87T219 -97T273 -101ZM328 520H570V427H461L328 520Z" />
<glyph unicode="h" glyph-name="h" horiz-adv-x="615" d="M51 748L235 752V467H237Q261 489 284 503T333 524T387 532Q439 532 473 514T527 464T555 390T564 301V0H379V295Q379 315 376 332T366 361T346 380T312 387Q296 387 282 382T256 368T235 351V0H51V748Z" />
<glyph unicode="i" glyph-name="i" horiz-adv-x="289" d="M52 520L236 524V0H52V520ZM144 565Q102 565 72 591T42 661Q42 704 72 731T144 758Q186 758 216 731T246 661Q246 618 216 592T144 565Z" />
<glyph unicode="j" glyph-name="j" horiz-adv-x="289" d="M10 -210L0 -66Q24 -66 35 -59T49 -37T52 4V520L236 524V-23Q236 -95 214 -136T142 -193T10 -210ZM144 565Q102 565 72 591T42 661Q42 704 72 731T144 758Q186 758 216 731T246 661Q246 618 216 592T144 565Z" />
<glyph unicode="k" glyph-name="k" horiz-adv-x="585" d="M51 748L235 752V322L306 358L248 300L360 520H577L368 255V346L598 0H370L240 271L322 222L235 179V0H51V748Z" />
<glyph unicode="l" glyph-name="l" horiz-adv-x="287" d="M51 748L235 752V0H51V748Z" />
<glyph unicode="m" glyph-name="m" horiz-adv-x="911" d="M51 343Q51 392 51 433T48 520L203 524L215 466H220Q237 480 260 495T312 521T377 532Q427 532 463 513T516 459H519Q542 478 567 494T623 521T689 532Q739 532 772 514T824 465T851 395T860 313V0H678V284Q678
313 674 336T657 373T620 387Q601 387 586 380T557 361T535 338L545 385Q546 353 546 333T546 282V0H365V279Q365 308 361 332T346 372T309 387Q291 387 276 381T250 367T232 351V0H51V343Z" />
<glyph unicode="n" glyph-name="n" horiz-adv-x="615" d="M51 342Q51 393 51 437T48 520L205 524L217 466H221Q238 479 262 494T318 521T387 532Q438 532 472 514T526 465T554 393T563 306V0H379V302Q379 324 375 339T362 366T342 382T314 387Q297 387 283 382T257
369T235 351V0H51V342Z" />
<glyph unicode="o" glyph-name="o" horiz-adv-x="605" d="M303 -12Q253 -12 204 3T116 50T53 134T29 260Q29 334 52 386T115 470T204 517T303 532Q353 532 402 517T490 470T553 386T577 260Q577 186 554 134T491 50T402 3T303 -12ZM303 120Q320 120 335 126T361
148T380 190T387 260Q387 302 380 329T362 372T335 393T303 400Q287 400 272 394T244 372T225 330T218 260Q218 218 225 191T244 148T271 127T303 120Z" />
<glyph unicode="p" glyph-name="p" horiz-adv-x="608" d="M52 331Q52 378 51 428T48 520L204 524L217 459H220Q249 489 288 510T377 532Q439 532 484 500T554 410T578 273Q578 187 549 123T469 24T358 -12Q333 -12 311 -6T271 13T238 43H236V-224H52V331ZM306
130Q337 130 355 149T381 198T389 264Q389 313 377 339T346 376T308 387Q293 387 279 382T254 368T236 348V196Q237 179 246 164T271 140T306 130Z" />
<glyph unicode="q" glyph-name="q" horiz-adv-x="605" d="M369 55H367Q353 31 321 10T239 -12Q175 -12 128 22T55 118T29 257Q29 339 55 400T129 497T240 532Q278 532 316 515T385 461H387L400 524L556 520Q555 485 554 438T553 345V-224H369V55ZM300 131Q329
131 348 151T369 196V356Q356 374 336 382T301 391Q278 391 259 376T228 331T216 259Q216 215 227 187T258 145T300 131Z" />
<glyph unicode="r" glyph-name="r" horiz-adv-x="415" d="M51 0V347Q51 404 50 444T48 520L205 524L220 443H223Q252 485 295 510T397 531V369Q352 375 308 370T235 332V0H51Z" />
<glyph unicode="s" glyph-name="s" horiz-adv-x="472" d="M210 -12Q162 -12 111 -2T28 21L49 144Q66 138 93 132T152 122T212 117Q242 117 254 126T267 148Q267 160 255 169T224 186T181 203Q149 215 116 233T60 283T37 365Q37 419 66 455T145 512T258 532Q304
532 346 524T418 503L398 380Q382 385 359 390T310 400T264 404Q243 404 229 397T214 375Q214 364 225 356T255 340T296 324Q329 313 363 294T421 244T445 160Q445 108 416 70T334 10T210 -12Z" />
<glyph unicode="t" glyph-name="t" horiz-adv-x="391" d="M247 -12Q195 -12 161 2T109 44T82 112T74 204V388H14L22 515L84 520L94 639L258 671V520H367L359 388H258V220Q258 193 264 176T286 149T326 140Q337 140 346 140T365 142V4Q349 0 314 -6T247 -12Z" />
<glyph unicode="u" glyph-name="u" horiz-adv-x="613" d="M228 -12Q158 -12 120 19T66 103T51 218V520H235V218Q235 178 250 156T302 133Q319 133 332 138T357 151T377 169V520H561V178Q561 127 561 83T564 0H437L397 63H392Q376 46 352 29T296 0T228 -12Z" />
<glyph unicode="v" glyph-name="v" horiz-adv-x="545" d="M-1 520H194L272 163H274L350 520H546L367 0H177L-1 520Z" />
<glyph unicode="w" glyph-name="w" horiz-adv-x="797" d="M0 520H189L250 159H252L283 320L322 520H474L514 320L544 159H546L607 520H798L650 0H462L399 296H397L335 0H146L0 520Z" />
<glyph unicode="x" glyph-name="x" horiz-adv-x="546" d="M195 0L300 227L364 244L546 520H350L244 293L181 276L0 0H195ZM546 0L364 276L300 293L195 520H0L181 244L244 227L350 0H546Z" />
<glyph unicode="y" glyph-name="y" horiz-adv-x="535" d="M201 10L265 134L344 520H539L277 -224H86L201 10ZM-1 520H194L268 164H315L310 0H178L-1 520Z" />
<glyph unicode="z" glyph-name="z" horiz-adv-x="496" d="M26 111L252 383H41L51 520H468V406L250 140L477 139L468 0H26V111Z" />
<glyph unicode="{" glyph-name="braceleft" horiz-adv-x="383" d="M340 -131Q220 -131 166 -96T112 19Q112 49 116 85T124 159T128 224Q128 250 122 269T97 300T37 316V405Q77 410 96 421T122 451T128 497Q128 526 124 562T116 636T112 701Q112 782 167 816T345
851L340 760Q283 760 265 738T246 671Q246 654 249 626T254 565T257 505Q257 457 241 428T198 383T135 361V359Q171 353 198 338T241 294T257 215Q257 188 255 156T249 95T246 50Q246 5 267 -17T345 -40L340 -131Z" />
<glyph unicode="|" glyph-name="bar" horiz-adv-x="287" d="M80 810H200V-80H80V810Z" />
<glyph unicode="}" glyph-name="braceright" horiz-adv-x="380" d="M41 851Q161 851 215 817T270 701Q270 673 266 636T258 563T253 497Q253 471 259 452T284 421T344 405V316Q304 312 285 301T259 270T253 224Q253 196 257 159T266 86T270 19Q270 -61 215 -96T36
-131L41 -40Q99 -40 117 -18T136 50Q136 67 133 95T127 155T124 215Q124 264 139 293T183 338T246 359V361Q211 368 183 383T140 427T124 505Q124 533 127 565T133 625T136 671Q136 716 115 738T36 760L41 851Z" />
<glyph unicode="~" glyph-name="asciitilde" horiz-adv-x="580" d="M398 225Q368 225 339 236T282 261T230 285T186 296Q160 296 151 275T136 233L50 244Q62 317 93 362T182 407Q212 407 241 396T299 372T351 347T394 336Q420 336 429 357T444 400L530 388Q518
316 488 271T398 225Z" />
<glyph unicode="&#xa0;" glyph-name="uni00A0" horiz-adv-x="268" />
<glyph unicode="&#xa1;" glyph-name="exclamdown" horiz-adv-x="317" d="M88 248H228L253 -208H65L88 248ZM159 318Q114 318 83 348T52 425Q52 469 83 500T159 531Q204 531 234 500T265 425Q265 379 235 349T159 318Z" />
<glyph unicode="&#xa2;" glyph-name="cent" horiz-adv-x="542" d="M258 175L312 87Q235 86 178 115T88 201T56 333Q56 404 85 461T170 554T310 590L258 502V688H376V507L352 590Q366 591 388 589T434 583T476 571L461 438Q444 444 419 449T361 454Q330 454 302
445T257 412T239 343Q239 297 256 271T302 234T359 224Q390 224 418 229T467 241L482 110Q449 97 405 92T317 87L376 172V-12H258V175Z" />
<glyph unicode="&#xa3;" glyph-name="sterling" horiz-adv-x="568" d="M35 86Q58 101 79 122T115 172T130 231Q130 252 122 275T87 340L211 265H45L53 383H105Q101 402 99 421T96 457Q96 525 129 572T217 642T337 666Q387 666 427 659T489 642L473 515Q447 522
420 527T363 532Q315 532 291 510T266 448Q266 433 269 416T277 383H408L401 265H211L288 317Q288 310 288 303T289 290Q289 247 273 206T228 135V133H505L496 0H47L35 86Z" />
<glyph unicode="&#xa4;" glyph-name="currency" horiz-adv-x="700" d="M350 126Q286 126 233 157T148 242T116 360Q116 425 147 478T232 562T350 594Q415 594 468 563T552 478T584 360Q584 296 553 243T468 158T350 126ZM350 234Q385 234 413 251T459 297T476
360Q476 395 459 423T414 469T350 486Q316 486 287 469T241 424T224 360Q224 326 241 297T287 251T350 234ZM67 567L143 643L241 545L165 469L67 567ZM459 175L535 251L633 153L557 77L459 175ZM557 643L633 567L535 469L459 545L557 643ZM165 251L241 175L143
77L67 153L165 251Z" />
<glyph unicode="&#xa5;" glyph-name="yen" horiz-adv-x="570" d="M197 95H47V173H197V221H47V297H187L2 655H198L285 379H287L373 656H569L385 297H524L525 221H375V173H524L525 95H375V0H197V95Z" />
<glyph unicode="&#xa6;" glyph-name="brokenbar" horiz-adv-x="287" d="M80 810H200V465H80V810ZM80 265H200V-80H80V265Z" />
<glyph unicode="&#xa7;" glyph-name="section" horiz-adv-x="565" d="M241 -84Q196 -84 143 -75T51 -50L71 65Q91 59 121 53T184 42T243 37Q285 37 308 48T331 82Q331 97 318 107T282 128T231 149Q203 160 173 173T118 206T77 254T61 321Q61 390 109 433T237 490L287
399Q257 397 235 382T212 341Q212 323 226 311T266 290T321 268Q360 254 399 233T465 179T492 94Q492 39 460 -1T372 -62T241 -84ZM285 248Q318 251 338 265T359 306Q359 325 345 337T306 359T251 382Q224 393 194 406T138 439T97 487T81 554Q81 610 111 648T195
707T317 728Q361 728 406 719T483 697L464 582Q447 588 421 594T368 603T320 607Q285 607 263 597T240 566Q240 552 254 541T290 522T340 502Q379 488 418 468T485 414T512 330Q512 268 471 225T362 164L285 248Z" />
<glyph unicode="&#xa8;" glyph-name="dieresis" horiz-adv-x="421" d="M100 577Q66 577 44 598T21 652Q21 684 43 706T100 728Q135 728 157 706T180 652Q180 620 158 599T100 577ZM320 577Q285 577 263 598T241 652Q241 684 263 706T320 728Q355 728 377 706T399
652Q399 620 377 599T320 577Z" />
<glyph unicode="&#xa9;" glyph-name="copyright" horiz-adv-x="812" d="M406 1Q333 1 271 26T163 98T91 207T65 342Q65 415 90 477T162 585T271 657T406 683Q479 683 541 658T649 586T721 477T747 342Q747 269 722 207T650 99T541 27T406 1ZM418 153Q354 153 312
177T250 242T229 336Q229 423 281 477T424 531Q459 531 488 525T537 510L524 441Q508 446 486 450T437 454Q378 454 348 426T318 340Q318 301 332 277T372 241T432 230Q460 230 485 235T532 248L544 182Q516 166 485 160T418 153ZM406 57Q467 57 518 78T608 139T667
229T689 342Q689 403 668 454T608 545T519 605T406 627Q345 627 294 606T204 545T145 455T123 342Q123 281 144 230T204 139T293 79T406 57Z" />
<glyph unicode="&#xaa;" glyph-name="ordfeminine" horiz-adv-x="350" d="M118 275Q74 275 46 302T17 372Q17 402 29 422T63 453T117 464H202V489Q202 497 198 503T183 513T153 517Q121 517 98 511T56 497L38 580Q61 588 97 596T180 605Q227 605 257 595T301 562T316
503V354Q316 332 316 314T319 281H236L210 315H208Q190 294 167 285T118 275ZM162 351Q171 351 180 354T195 362T203 375V401H152Q146 401 141 399T133 391T129 377Q129 363 139 357T162 351Z" />
<glyph unicode="&#xab;" glyph-name="guillemotleft" horiz-adv-x="675" d="M614 46L359 234V346L614 534V390L424 248V332L614 190V46ZM316 46L61 234V346L316 534V390L126 248V332L316 190V46Z" />
<glyph unicode="&#xac;" glyph-name="logicalnot" horiz-adv-x="609" d="M437 268H62V379H547V72H437V268Z" />
<glyph unicode="&#xad;" glyph-name="uni00AD" horiz-adv-x="430" d="M42 341H390V216H42V341Z" />
<glyph unicode="&#xae;" glyph-name="registered" horiz-adv-x="673" d="M336 200Q265 200 209 232T121 320T89 447Q89 518 121 574T209 662T336 694Q407 694 463 662T551 574T583 447Q583 376 551 320T463 232T336 200ZM336 251Q394 251 437 276T505 345T530
447Q530 505 506 549T438 618T336 643Q279 643 235 618T167 549T142 447Q142 390 166 346T235 276T336 251ZM248 570Q260 572 283 573T329 575Q379 575 404 554T430 497Q430 471 418 453T376 423V421L444 323H385L324 415H299V323H248V570ZM327 459Q350 459 363
467T376 495Q376 530 330 530Q320 530 314 530T299 528V459H327Z" />
<glyph unicode="&#xaf;" glyph-name="overscore" horiz-adv-x="402" d="M50 600V695H352V600H50Z" />
<glyph unicode="&#xb0;" glyph-name="degree" horiz-adv-x="379" d="M191 433Q152 433 120 451T69 500T50 570Q50 610 69 641T120 690T191 708Q231 708 262 690T313 641T332 570Q332 531 314 500T263 451T191 433ZM191 505Q218 505 236 523T255 570Q255 599 237
617T191 636Q163 636 146 618T128 570Q128 541 145 523T191 505Z" />
<glyph unicode="&#xb1;" glyph-name="plusminus" horiz-adv-x="584" d="M237 81V559H347V81H237ZM53 375H531V265H53V375ZM53 101H531V1H53V101Z" />
<glyph unicode="&#xb2;" glyph-name="uni00B2" horiz-adv-x="378" d="M25 476Q79 521 121 554T187 615T211 669Q211 693 195 704T154 716Q132 716 108 710T62 693L27 783Q54 797 93 808T179 820Q229 820 265 804T322 758T342 681Q342 645 325 616T281 563T225
519T172 484L152 502H348L342 398H25V476Z" />
<glyph unicode="&#xb3;" glyph-name="uni00B3" horiz-adv-x="364" d="M160 391Q117 391 77 401T14 424L40 515Q60 509 90 503T150 496Q183 496 197 504T212 530Q212 541 205 549T183 562T146 567H103L107 661H143Q156 661 170 663T194 670T204 687Q204 698 193
708T146 718Q123 718 99 714T58 704L37 795Q61 806 98 813T176 821Q244 821 288 793T333 712Q333 681 314 656T250 617V616Q293 609 319 583T346 515Q346 477 322 449T255 406T160 391Z" />
<glyph unicode="&#xb4;" glyph-name="acute" horiz-adv-x="326" d="M95 599L168 744H321L207 599H95Z" />
<glyph unicode="&#xb5;" glyph-name="uni00B5" horiz-adv-x="584" d="M222 -12Q151 -12 113 20T59 109T44 239V485H228V218Q228 178 242 156T288 133Q304 133 317 138T340 151T360 169V485H544V178Q544 127 545 83T547 0H420L380 63H377Q360 46 336 29T282 0T222
-12ZM44 392H210V-200H44V392Z" />
<glyph unicode="&#xb6;" glyph-name="paragraph" horiz-adv-x="567" d="M199 344L299 246Q164 245 92 303T19 462Q19 562 93 618T326 674V-80H199V344ZM383 674H510V-80H383V674Z" />
<glyph unicode="&#xb7;" glyph-name="middot" horiz-adv-x="292" d="M157 147Q112 147 82 177T51 253Q51 297 81 328T157 359Q203 359 233 328T264 253Q264 208 234 178T157 147Z" />
<glyph unicode="&#xb8;" glyph-name="cedilla" horiz-adv-x="600" d="M258 -236Q233 -236 208 -232T160 -221L186 -166Q204 -169 221 -171T253 -173Q285 -173 299 -164T314 -136Q314 -119 303 -113T273 -106T238 -113L210 -87L253 1H322L293 -58Q326 -56 351 -64T390
-90T404 -134Q404 -181 365 -208T258 -236Z" />
<glyph unicode="&#xb9;" glyph-name="uni00B9" horiz-adv-x="332" d="M130 694H128L22 652V756L158 816H258V398H130V694Z" />
<glyph unicode="&#xba;" glyph-name="ordmasculine" horiz-adv-x="373" d="M186 274Q145 274 107 290T43 343T18 439Q18 503 43 539T106 590T186 605Q227 605 265 590T329 538T355 439Q355 379 330 343T266 291T186 274ZM186 357Q198 357 209 363T227 388T234
440Q234 475 227 492T209 515T186 522Q174 522 163 516T145 492T138 440Q138 406 145 388T163 364T186 357Z" />
<glyph unicode="&#xbb;" glyph-name="guillemotright" horiz-adv-x="675" d="M359 46V190L550 332V248L359 390V534L614 346V234L359 46ZM61 46V190L251 332V248L61 390V534L316 346V234L61 46Z" />
<glyph unicode="&#xbc;" glyph-name="onequarter" horiz-adv-x="897" d="M130 574H128L22 532V636L158 696H258V278H130V574ZM677 696L293 0H172L556 696H677ZM714 0V252L715 306L714 307L687 252L652 185V183H883L878 84H531V172L678 418H841V0H714Z" />
<glyph unicode="&#xbd;" glyph-name="onehalf" horiz-adv-x="895" d="M130 574H128L22 532V636L158 696H258V278H130V574ZM677 696L293 0H172L556 696H677ZM542 78Q596 123 638 156T704 217T728 271Q728 295 712 306T671 318Q649 318 625 312T579 295L544 385Q571
399 610 410T696 422Q746 422 782 406T839 360T859 283Q859 247 842 218T798 165T742 121T689 86L669 104H865L859 0H542V78Z" />
<glyph unicode="&#xbe;" glyph-name="threequarters" horiz-adv-x="929" d="M160 271Q117 271 77 281T14 304L40 395Q60 389 90 383T150 376Q183 376 197 384T212 410Q212 421 205 429T183 442T146 447H103L107 541H143Q156 541 170 543T194 550T204 567Q204 578
193 588T146 598Q123 598 99 594T58 584L37 675Q61 686 98 693T176 701Q244 701 288 673T333 592Q333 561 314 536T250 497V496Q293 489 319 463T346 395Q346 357 322 329T255 286T160 271ZM709 696L325 0H204L588 696H709ZM746 0V252L747 306L746 307L719 252L684
185V183H915L910 84H563V172L710 418H873V0H746Z" />
<glyph unicode="&#xbf;" glyph-name="questiondown" horiz-adv-x="480" d="M272 -219Q203 -219 151 -198T69 -137T40 -44Q40 3 55 35T92 92T137 136T174 180T189 236Q189 239 189 242T189 248H344Q346 238 347 225T348 202Q348 167 335 143T303 100T265 66T234
33T221 -8Q221 -36 246 -52T319 -69Q341 -69 359 -66T392 -60L401 -200Q378 -208 346 -213T272 -219ZM267 318Q222 318 191 348T160 425Q160 469 191 500T267 531Q312 531 342 500T373 425Q373 379 343 349T267 318Z" />
<glyph unicode="&#xc0;" glyph-name="Agrave" horiz-adv-x="659" d="M211 728H448L655 0H463L351 487L331 581H329L308 487L197 0H4L211 728ZM253 303H407L438 160H222L253 303ZM274 770L161 904H314L386 770H274Z" />
<glyph unicode="&#xc1;" glyph-name="Aacute" horiz-adv-x="659" d="M211 728H448L655 0H463L351 487L331 581H329L308 487L197 0H4L211 728ZM253 303H407L438 160H222L253 303ZM274 770L345 904H499L385 770H274Z" />
<glyph unicode="&#xc2;" glyph-name="Acircumflex" horiz-adv-x="659" d="M211 728H448L655 0H463L351 487L331 581H329L308 487L197 0H4L211 728ZM253 303H407L438 160H222L253 303ZM139 770L241 899H416L520 770H381L329 845L278 770H139Z" />
<glyph unicode="&#xc3;" glyph-name="Atilde" horiz-adv-x="659" d="M211 728H448L655 0H463L351 487L331 581H329L308 487L197 0H4L211 728ZM253 303H407L438 160H222L253 303ZM418 903L497 886Q487 831 458 802T388 772Q366 772 349 778T317 794T292 811T271
818Q262 818 254 808T241 770L162 785Q171 840 200 870T271 900Q292 900 309 893T341 877T367 860T388 853Q396 853 404 864T418 903Z" />
<glyph unicode="&#xc4;" glyph-name="Adieresis" horiz-adv-x="659" d="M211 728H448L655 0H463L351 487L331 581H329L308 487L197 0H4L211 728ZM253 303H407L438 160H222L253 303ZM219 767Q185 767 163 788T140 842Q140 874 162 896T219 918Q254 918 276 896T299
842Q299 810 277 789T219 767ZM439 767Q404 767 382 788T360 842Q360 874 382 896T439 918Q474 918 496 896T518 842Q518 810 496 789T439 767Z" />
<glyph unicode="&#xc5;" glyph-name="Aring" horiz-adv-x="659" d="M211 728H448L655 0H463L351 487L331 581H329L308 487L197 0H4L211 728ZM253 303H407L438 160H222L253 303ZM329 702Q300 702 276 717T237 757T222 812Q222 841 237 865T276 904T329 918Q360
918 384 904T423 866T438 812Q438 782 424 757T385 717T329 702ZM330 761Q351 761 365 775T379 812Q379 831 365 845T330 859Q310 859 296 845T281 812Q281 790 295 776T330 761Z" />
<glyph unicode="&#xc6;" glyph-name="AE" horiz-adv-x="884" d="M280 728H516L452 581H397L197 0H4L280 728ZM256 303H403L433 160H224L256 303ZM401 728H837L829 576H586V448H812L804 296H586V152H851L842 0H401V728Z" />
<glyph unicode="&#xc7;" glyph-name="Ccedilla" horiz-adv-x="617" d="M398 -12Q300 -12 230 18T116 99T51 217T30 355Q30 474 77 560T209 693T406 740Q464 740 513 731T591 708L569 561Q538 573 499 580T418 588Q364 588 320 565T250 492T225 364Q225 291 248
242T315 166T421 140Q457 140 497 147T567 165L583 18Q558 7 508 -2T398 -12ZM345 -237Q320 -237 295 -233T247 -222L273 -167Q291 -170 308 -172T340 -174Q372 -174 386 -165T401 -137Q401 -120 390 -114T360 -107T325 -114L297 -88L340 0H409L380 -59Q413 -57
438 -65T477 -91T491 -134Q491 -182 452 -209T345 -237Z" />
<glyph unicode="&#xc8;" glyph-name="Egrave" horiz-adv-x="567" d="M55 728H520L512 576H240V448H495L486 296H240V152H534L525 0H55V728ZM241 770L128 904H281L353 770H241Z" />
<glyph unicode="&#xc9;" glyph-name="Eacute" horiz-adv-x="567" d="M55 728H520L512 576H240V448H495L486 296H240V152H534L525 0H55V728ZM241 770L312 904H466L352 770H241Z" />
<glyph unicode="&#xca;" glyph-name="Ecircumflex" horiz-adv-x="567" d="M55 728H520L512 576H240V448H495L486 296H240V152H534L525 0H55V728ZM106 770L208 899H383L487 770H348L296 845L245 770H106Z" />
<glyph unicode="&#xcb;" glyph-name="Edieresis" horiz-adv-x="567" d="M55 728H520L512 576H240V448H495L486 296H240V152H534L525 0H55V728ZM187 767Q153 767 131 788T108 842Q108 874 130 896T187 918Q222 918 244 896T267 842Q267 810 245 789T187 767ZM407
767Q372 767 350 788T328 842Q328 874 350 896T407 918Q442 918 464 896T486 842Q486 810 464 789T407 767Z" />
<glyph unicode="&#xcc;" glyph-name="Igrave" horiz-adv-x="296" d="M55 728H240V0H55V728ZM347 770L234 904H387L459 770H347Z" />
<glyph unicode="&#xcd;" glyph-name="Iacute" horiz-adv-x="296" d="M55 728H240V0H55V728ZM92 770L163 904H317L203 770H92Z" />
<glyph unicode="&#xce;" glyph-name="Icircumflex" horiz-adv-x="296" d="M55 728H240V0H55V728ZM213 770L315 899H490L594 770H455L403 845L352 770H213Z" />
<glyph unicode="&#xcf;" glyph-name="Idieresis" horiz-adv-x="296" d="M55 728H240V0H55V728ZM293 767Q259 767 237 788T214 842Q214 874 236 896T293 918Q328 918 350 896T373 842Q373 810 351 789T293 767ZM513 767Q478 767 456 788T434 842Q434 874 456 896T513
918Q548 918 570 896T592 842Q592 810 570 789T513 767Z" />
<glyph unicode="&#xd0;" glyph-name="Eth" horiz-adv-x="714" d="M236 -6Q175 -6 132 -3T55 3V722Q107 727 168 729T289 731Q421 731 509 689T640 567T684 374Q684 236 631 153T478 32T236 -6ZM278 143Q341 143 388 164T462 235T489 370Q489 446 465 493T398 562T298
584Q281 584 267 584T240 580V145Q247 144 257 144T278 143ZM3 288L12 440H368L359 288H3Z" />
<glyph unicode="&#xd1;" glyph-name="Ntilde" horiz-adv-x="713" d="M55 728H267Q324 616 377 510T486 277H489L484 466V728H657V0H461Q404 106 365 181T301 310T257 400T226 468H223L228 278V0H55V728ZM459 903L538 886Q528 831 499 802T429 772Q407 772 390
778T358 794T333 811T312 818Q303 818 295 808T282 770L203 785Q212 840 241 870T312 900Q333 900 350 893T382 877T408 860T429 853Q437 853 445 864T459 903Z" />
<glyph unicode="&#xd2;" glyph-name="Ograve" horiz-adv-x="735" d="M368 -12Q284 -12 222 17T116 98T52 218T30 364Q30 442 51 510T116 629T221 710T368 740Q451 740 513 711T619 630T683 510T705 364Q705 286 684 218T619 99T514 18T368 -12ZM368 140Q403 140
430 155T476 199T502 269T511 364Q511 417 503 458T476 529T431 573T368 588Q332 588 305 573T259 529T233 459T224 364Q224 311 232 270T259 199T304 155T368 140ZM311 770L198 904H351L423 770H311Z" />
<glyph unicode="&#xd3;" glyph-name="Oacute" horiz-adv-x="735" d="M368 -12Q284 -12 222 17T116 98T52 218T30 364Q30 442 51 510T116 629T221 710T368 740Q451 740 513 711T619 630T683 510T705 364Q705 286 684 218T619 99T514 18T368 -12ZM368 140Q403 140
430 155T476 199T502 269T511 364Q511 417 503 458T476 529T431 573T368 588Q332 588 305 573T259 529T233 459T224 364Q224 311 232 270T259 199T304 155T368 140ZM312 770L383 904H537L423 770H312Z" />
<glyph unicode="&#xd4;" glyph-name="Ocircumflex" horiz-adv-x="735" d="M368 -12Q284 -12 222 17T116 98T52 218T30 364Q30 442 51 510T116 629T221 710T368 740Q451 740 513 711T619 630T683 510T705 364Q705 286 684 218T619 99T514 18T368 -12ZM368 140Q403
140 430 155T476 199T502 269T511 364Q511 417 503 458T476 529T431 573T368 588Q332 588 305 573T259 529T233 459T224 364Q224 311 232 270T259 199T304 155T368 140ZM177 770L279 899H454L558 770H419L367 845L316 770H177Z" />
<glyph unicode="&#xd5;" glyph-name="Otilde" horiz-adv-x="735" d="M368 -12Q284 -12 222 17T116 98T52 218T30 364Q30 442 51 510T116 629T221 710T368 740Q451 740 513 711T619 630T683 510T705 364Q705 286 684 218T619 99T514 18T368 -12ZM368 140Q403 140
430 155T476 199T502 269T511 364Q511 417 503 458T476 529T431 573T368 588Q332 588 305 573T259 529T233 459T224 364Q224 311 232 270T259 199T304 155T368 140ZM456 903L535 886Q525 831 496 802T426 772Q404 772 387 778T355 794T330 811T309 818Q300 818
292 808T279 770L200 785Q209 840 238 870T309 900Q330 900 347 893T379 877T405 860T426 853Q434 853 442 864T456 903Z" />
<glyph unicode="&#xd6;" glyph-name="Odieresis" horiz-adv-x="735" d="M368 -12Q284 -12 222 17T116 98T52 218T30 364Q30 442 51 510T116 629T221 710T368 740Q451 740 513 711T619 630T683 510T705 364Q705 286 684 218T619 99T514 18T368 -12ZM368 140Q403
140 430 155T476 199T502 269T511 364Q511 417 503 458T476 529T431 573T368 588Q332 588 305 573T259 529T233 459T224 364Q224 311 232 270T259 199T304 155T368 140ZM257 767Q223 767 201 788T178 842Q178 874 200 896T257 918Q292 918 314 896T337 842Q337
810 315 789T257 767ZM477 767Q442 767 420 788T398 842Q398 874 420 896T477 918Q512 918 534 896T556 842Q556 810 534 789T477 767Z" />
<glyph unicode="&#xd7;" glyph-name="multiply" horiz-adv-x="576" d="M435 97L68 464L147 543L514 176L435 97ZM68 176L435 543L514 464L147 97L68 176Z" />
<glyph unicode="&#xd8;" glyph-name="Oslash" horiz-adv-x="735" d="M368 -11Q284 -11 222 18T116 99T52 219T30 364Q30 442 51 509T116 628T221 709T368 739Q451 739 513 710T619 629T683 510T705 364Q705 287 684 219T619 100T514 19T368 -11ZM368 140Q403 140
430 155T476 199T502 269T511 364Q511 417 503 458T476 529T431 573T368 588Q332 588 305 573T259 529T233 459T224 364Q224 311 232 270T259 199T304 155T368 140ZM209 -65L108 -19L526 793L627 747L209 -65Z" />
<glyph unicode="&#xd9;" glyph-name="Ugrave" horiz-adv-x="703" d="M351 -12Q252 -12 185 24T85 130T51 304V728H235V292Q235 218 263 177T351 136Q411 136 439 177T467 292V728H651V304Q651 200 618 130T518 24T351 -12ZM293 764L180 898H333L405 764H293Z" />
<glyph unicode="&#xda;" glyph-name="Uacute" horiz-adv-x="703" d="M351 -12Q252 -12 185 24T85 130T51 304V728H235V292Q235 218 263 177T351 136Q411 136 439 177T467 292V728H651V304Q651 200 618 130T518 24T351 -12ZM295 770L366 904H520L406 770H295Z" />
<glyph unicode="&#xdb;" glyph-name="Ucircumflex" horiz-adv-x="703" d="M351 -12Q252 -12 185 24T85 130T51 304V728H235V292Q235 218 263 177T351 136Q411 136 439 177T467 292V728H651V304Q651 200 618 130T518 24T351 -12ZM161 770L263 899H438L542 770H403L351
845L300 770H161Z" />
<glyph unicode="&#xdc;" glyph-name="Udieresis" horiz-adv-x="703" d="M351 -12Q252 -12 185 24T85 130T51 304V728H235V292Q235 218 263 177T351 136Q411 136 439 177T467 292V728H651V304Q651 200 618 130T518 24T351 -12ZM241 767Q207 767 185 788T162 842Q162
874 184 896T241 918Q276 918 298 896T321 842Q321 810 299 789T241 767ZM461 767Q426 767 404 788T382 842Q382 874 404 896T461 918Q496 918 518 896T540 842Q540 810 518 789T461 767Z" />
<glyph unicode="&#xdd;" glyph-name="Yacute" horiz-adv-x="630" d="M224 272L-1 728H203L259 571L316 401H318L374 571L430 728H633L409 272V0H224V272ZM261 770L332 904H486L372 770H261Z" />
<glyph unicode="&#xde;" glyph-name="Thorn" horiz-adv-x="618" d="M55 728H237V598Q255 598 276 599T331 600Q417 600 474 572T561 492T591 375Q591 294 558 239T465 157T324 129Q296 129 275 131T237 132V0H55V728ZM302 275Q351 275 379 297T407 367Q407 416
379 435T304 454Q283 454 267 454T237 452V279Q252 277 268 276T302 275Z" />
<glyph unicode="&#xdf;" glyph-name="germandbls" horiz-adv-x="663" d="M419 -11Q384 -11 348 -4T281 16L301 142Q319 136 345 130T395 124Q427 124 441 135T455 160Q455 176 440 190T402 221T357 258T319 308T304 376Q304 421 325 456T379 519T449 567L425 533Q421
576 398 606T330 636Q297 636 280 621T255 581T246 529T244 477V0H60V458Q60 500 65 544T85 630T131 705T208 757T324 776Q412 776 467 746T550 665T586 555Q546 528 514 491T482 411Q482 382 497 361T534 321T580 281T618 230T633 159Q633 102 604 65T527 8T419
-11Z" />
<glyph unicode="&#xe0;" glyph-name="agrave" horiz-adv-x="562" d="M192 -12Q143 -12 106 9T47 66T26 147Q26 184 38 212T73 260T132 289T214 299H326V337Q326 350 322 360T309 378T285 390T248 394Q204 394 161 384T88 363L59 489Q83 500 119 509T197 525T281
532Q346 532 390 520T460 485T497 425T509 342V120Q509 89 511 56T515 0H383L346 58H343Q312 24 273 6T192 -12ZM258 110Q276 110 298 120T329 145V202H246Q237 202 229 200T215 193T204 179T200 157Q200 134 216 122T258 110ZM227 574L114 720H267L339 574H227Z"
/>
<glyph unicode="&#xe1;" glyph-name="aacute" horiz-adv-x="562" d="M192 -12Q143 -12 106 9T47 66T26 147Q26 184 38 212T73 260T132 289T214 299H326V337Q326 350 322 360T309 378T285 390T248 394Q204 394 161 384T88 363L59 489Q83 500 119 509T197 525T281
532Q346 532 390 520T460 485T497 425T509 342V120Q509 89 511 56T515 0H383L346 58H343Q312 24 273 6T192 -12ZM258 110Q276 110 298 120T329 145V202H246Q237 202 229 200T215 193T204 179T200 157Q200 134 216 122T258 110ZM227 574L300 720H453L339 574H227Z"
/>
<glyph unicode="&#xe2;" glyph-name="acircumflex" horiz-adv-x="562" d="M192 -12Q143 -12 106 9T47 66T26 147Q26 184 38 212T73 260T132 289T214 299H326V337Q326 350 322 360T309 378T285 390T248 394Q204 394 161 384T88 363L59 489Q83 500 119 509T197 525T281
532Q346 532 390 520T460 485T497 425T509 342V120Q509 89 511 56T515 0H383L346 58H343Q312 24 273 6T192 -12ZM258 110Q276 110 298 120T329 145V202H246Q237 202 229 200T215 193T204 179T200 157Q200 134 216 122T258 110ZM92 574L194 717H369L473 574H334L282
663L231 574H92Z" />
<glyph unicode="&#xe3;" glyph-name="atilde" horiz-adv-x="562" d="M192 -12Q143 -12 106 9T47 66T26 147Q26 184 38 212T73 260T132 289T214 299H326V337Q326 350 322 360T309 378T285 390T248 394Q204 394 161 384T88 363L59 489Q83 500 119 509T197 525T281
532Q346 532 390 520T460 485T497 425T509 342V120Q509 89 511 56T515 0H383L346 58H343Q312 24 273 6T192 -12ZM258 110Q276 110 298 120T329 145V202H246Q237 202 229 200T215 193T204 179T200 157Q200 134 216 122T258 110ZM377 728L465 709Q454 651 422 618T345
585Q322 585 303 593T269 611T241 628T219 636Q210 636 201 624T187 583L100 600Q109 659 142 692T219 725Q242 725 261 718T295 700T323 683T345 675Q354 675 363 687T377 728Z" />
<glyph unicode="&#xe4;" glyph-name="adieresis" horiz-adv-x="562" d="M192 -12Q143 -12 106 9T47 66T26 147Q26 184 38 212T73 260T132 289T214 299H326V337Q326 350 322 360T309 378T285 390T248 394Q204 394 161 384T88 363L59 489Q83 500 119 509T197 525T281
532Q346 532 390 520T460 485T497 425T509 342V120Q509 89 511 56T515 0H383L346 58H343Q312 24 273 6T192 -12ZM258 110Q276 110 298 120T329 145V202H246Q237 202 229 200T215 193T204 179T200 157Q200 134 216 122T258 110ZM172 577Q138 577 116 598T93 652Q93
684 115 706T172 728Q207 728 229 706T252 652Q252 620 230 599T172 577ZM392 577Q357 577 335 598T313 652Q313 684 335 706T392 728Q427 728 449 706T471 652Q471 620 449 599T392 577Z" />
<glyph unicode="&#xe5;" glyph-name="aring" horiz-adv-x="562" d="M192 -12Q143 -12 106 9T47 66T26 147Q26 184 38 212T73 260T132 289T214 299H326V337Q326 350 322 360T309 378T285 390T248 394Q204 394 161 384T88 363L59 489Q83 500 119 509T197 525T281
532Q346 532 390 520T460 485T497 425T509 342V120Q509 89 511 56T515 0H383L346 58H343Q312 24 273 6T192 -12ZM258 110Q276 110 298 120T329 145V202H246Q237 202 229 200T215 193T204 179T200 157Q200 134 216 122T258 110ZM282 791Q238 791 207 823T175 900Q175
930 190 954T229 993T282 1008Q313 1008 337 993T376 954T391 901Q391 870 377 846T338 806T282 791ZM283 850Q304 850 318 865T332 900Q332 920 318 934T283 949Q263 949 249 935T234 900Q234 880 248 865T283 850Z" />
<glyph unicode="&#xe6;" glyph-name="ae" horiz-adv-x="849" d="M192 -12Q143 -12 106 9T47 66T26 147Q26 184 38 213T73 261T131 290T214 300H326V337Q326 350 322 360T309 378T285 390T248 394Q204 394 161 384T88 363L59 489Q83 500 119 509T197 525T281 532Q340
532 377 520T435 485T464 425T472 342V243Q439 161 406 111T338 34T267 -2T192 -12ZM250 110Q267 110 282 116T310 138T329 179V203H246Q237 203 229 201T215 193T204 179T200 157Q200 133 215 122T250 110ZM603 -12Q514 -12 453 18T361 108T330 253Q330 306 345
355T391 445T473 508T592 532Q663 532 711 506T785 436T819 333T816 211H423L522 285Q504 241 504 210T522 159T567 132T629 123Q665 123 705 129T779 146L797 21Q752 5 701 -3T603 -12ZM424 307H655Q656 312 656 315T656 321Q656 342 650 361T629 394T587 407Q554
407 535 387T509 334T511 267L424 307Z" />
<glyph unicode="&#xe7;" glyph-name="ccedilla" horiz-adv-x="491" d="M307 -12Q224 -12 162 19T64 111T29 257Q29 336 62 397T162 495T327 531Q358 531 395 526T466 508L448 374Q428 380 399 386T337 392Q303 392 276 379T232 337T216 262Q216 213 235 184T284
142T346 129Q376 129 405 134T457 145L470 14Q441 3 395 -4T307 -12ZM259 -237Q234 -237 209 -233T161 -222L187 -167Q205 -170 222 -172T254 -174Q286 -174 300 -165T315 -137Q315 -120 304 -114T274 -107T239 -114L211 -88L254 0H323L294 -59Q327 -57 352 -65T391
-91T405 -134Q405 -182 366 -209T259 -237Z" />
<glyph unicode="&#xe8;" glyph-name="egrave" horiz-adv-x="552" d="M306 -12Q217 -12 155 18T61 108T29 253Q29 306 44 355T92 445T175 509T295 532Q366 532 414 506T488 436T521 334T518 212H125L225 286Q200 226 209 191T252 139T332 123Q368 123 408 130T481
146L499 21Q455 5 404 -3T306 -12ZM126 308H357Q358 312 358 315T358 321Q358 342 353 361T332 394T290 407Q257 407 238 387T212 334T214 268L126 308ZM243 574L130 720H283L355 574H243Z" />
<glyph unicode="&#xe9;" glyph-name="eacute" horiz-adv-x="552" d="M306 -12Q217 -12 155 18T61 108T29 253Q29 306 44 355T92 445T175 509T295 532Q366 532 414 506T488 436T521 334T518 212H125L225 286Q200 226 209 191T252 139T332 123Q368 123 408 130T481
146L499 21Q455 5 404 -3T306 -12ZM126 308H357Q358 312 358 315T358 321Q358 342 353 361T332 394T290 407Q257 407 238 387T212 334T214 268L126 308ZM243 574L316 720H469L355 574H243Z" />
<glyph unicode="&#xea;" glyph-name="ecircumflex" horiz-adv-x="552" d="M306 -12Q217 -12 155 18T61 108T29 253Q29 306 44 355T92 445T175 509T295 532Q366 532 414 506T488 436T521 334T518 212H125L225 286Q200 226 209 191T252 139T332 123Q368 123 408
130T481 146L499 21Q455 5 404 -3T306 -12ZM126 308H357Q358 312 358 315T358 321Q358 342 353 361T332 394T290 407Q257 407 238 387T212 334T214 268L126 308ZM109 574L211 717H386L490 574H351L299 663L248 574H109Z" />
<glyph unicode="&#xeb;" glyph-name="edieresis" horiz-adv-x="552" d="M306 -12Q217 -12 155 18T61 108T29 253Q29 306 44 355T92 445T175 509T295 532Q366 532 414 506T488 436T521 334T518 212H125L225 286Q200 226 209 191T252 139T332 123Q368 123 408 130T481
146L499 21Q455 5 404 -3T306 -12ZM126 308H357Q358 312 358 315T358 321Q358 342 353 361T332 394T290 407Q257 407 238 387T212 334T214 268L126 308ZM189 577Q155 577 133 598T110 652Q110 684 132 706T189 728Q224 728 246 706T269 652Q269 620 247 599T189
577ZM409 577Q374 577 352 598T330 652Q330 684 352 706T409 728Q444 728 466 706T488 652Q488 620 466 599T409 577Z" />
<glyph unicode="&#xec;" glyph-name="igrave" horiz-adv-x="275" d="M44 0V520L228 525V0H44ZM347 845L264 990H417L459 845H347Z" />
<glyph unicode="&#xed;" glyph-name="iacute" horiz-adv-x="275" d="M44 0V520L228 525V0H44ZM324 845L367 990H520L436 845H324Z" />
<glyph unicode="&#xee;" glyph-name="icircumflex" horiz-adv-x="275" d="M44 0V520L228 525V0H44ZM250 847L326 990H456L534 847H429L391 936L354 847H250Z" />
<glyph unicode="&#xef;" glyph-name="idieresis" horiz-adv-x="275" d="M44 0V520L228 525V0H44ZM291 577Q257 577 235 598T212 652Q212 684 234 706T291 728Q326 728 348 706T371 652Q371 620 349 599T291 577ZM493 577Q458 577 436 598T414 652Q414 684 436
706T493 728Q528 728 550 706T572 652Q572 620 550 599T493 577Z" />
<glyph unicode="&#xf0;" glyph-name="eth" horiz-adv-x="583" d="M289 -10Q212 -10 154 20T63 104T30 229Q30 299 60 349T140 425T250 452Q283 452 305 445T342 423L344 425Q326 475 288 511T200 575T93 623L147 734Q235 711 309 669T438 568T523 437T553 281Q553
182 517 118T421 22T289 -10ZM295 122Q334 122 350 154T366 233Q366 264 360 287T338 325T295 339Q266 339 250 323T226 281T219 231Q219 204 226 179T250 138T295 122ZM142 461L92 540L442 735L493 658L142 461Z" />
<glyph unicode="&#xf1;" glyph-name="ntilde" horiz-adv-x="615" d="M51 342Q51 393 51 437T48 520L205 524L217 466H221Q238 479 262 494T318 521T387 532Q438 532 472 514T526 465T554 393T563 306V0H379V302Q379 324 375 339T362 366T342 382T314 387Q297 387
283 382T257 369T235 351V0H51V342ZM418 728L506 709Q495 651 463 618T386 585Q363 585 344 593T310 611T282 628T260 636Q251 636 242 624T228 583L141 600Q150 659 183 692T260 725Q283 725 302 718T336 700T364 683T386 675Q395 675 404 687T418 728Z" />
<glyph unicode="&#xf2;" glyph-name="ograve" horiz-adv-x="605" d="M303 -12Q253 -12 204 3T116 50T53 134T29 260Q29 334 52 386T115 470T204 517T303 532Q353 532 402 517T490 470T553 386T577 260Q577 186 554 134T491 50T402 3T303 -12ZM303 120Q320 120
335 126T361 148T380 190T387 260Q387 302 380 329T362 372T335 393T303 400Q287 400 272 394T244 372T225 330T218 260Q218 218 225 191T244 148T271 127T303 120ZM247 574L134 720H287L359 574H247Z" />
<glyph unicode="&#xf3;" glyph-name="oacute" horiz-adv-x="605" d="M303 -12Q253 -12 204 3T116 50T53 134T29 260Q29 334 52 386T115 470T204 517T303 532Q353 532 402 517T490 470T553 386T577 260Q577 186 554 134T491 50T402 3T303 -12ZM303 120Q320 120
335 126T361 148T380 190T387 260Q387 302 380 329T362 372T335 393T303 400Q287 400 272 394T244 372T225 330T218 260Q218 218 225 191T244 148T271 127T303 120ZM247 574L320 720H473L359 574H247Z" />
<glyph unicode="&#xf4;" glyph-name="ocircumflex" horiz-adv-x="605" d="M303 -12Q253 -12 204 3T116 50T53 134T29 260Q29 334 52 386T115 470T204 517T303 532Q353 532 402 517T490 470T553 386T577 260Q577 186 554 134T491 50T402 3T303 -12ZM303 120Q320
120 335 126T361 148T380 190T387 260Q387 302 380 329T362 372T335 393T303 400Q287 400 272 394T244 372T225 330T218 260Q218 218 225 191T244 148T271 127T303 120ZM113 574L215 717H390L494 574H355L303 663L252 574H113Z" />
<glyph unicode="&#xf5;" glyph-name="otilde" horiz-adv-x="605" d="M303 -12Q253 -12 204 3T116 50T53 134T29 260Q29 334 52 386T115 470T204 517T303 532Q353 532 402 517T490 470T553 386T577 260Q577 186 554 134T491 50T402 3T303 -12ZM303 120Q320 120
335 126T361 148T380 190T387 260Q387 302 380 329T362 372T335 393T303 400Q287 400 272 394T244 372T225 330T218 260Q218 218 225 191T244 148T271 127T303 120ZM398 728L486 709Q475 651 443 618T366 585Q343 585 324 593T290 611T262 628T240 636Q231 636
222 624T208 583L121 600Q130 659 163 692T240 725Q263 725 282 718T316 700T344 683T366 675Q375 675 384 687T398 728Z" />
<glyph unicode="&#xf6;" glyph-name="odieresis" horiz-adv-x="605" d="M303 -12Q253 -12 204 3T116 50T53 134T29 260Q29 334 52 386T115 470T204 517T303 532Q353 532 402 517T490 470T553 386T577 260Q577 186 554 134T491 50T402 3T303 -12ZM303 120Q320 120
335 126T361 148T380 190T387 260Q387 302 380 329T362 372T335 393T303 400Q287 400 272 394T244 372T225 330T218 260Q218 218 225 191T244 148T271 127T303 120ZM193 577Q159 577 137 598T114 652Q114 684 136 706T193 728Q228 728 250 706T273 652Q273 620
251 599T193 577ZM413 577Q378 577 356 598T334 652Q334 684 356 706T413 728Q448 728 470 706T492 652Q492 620 470 599T413 577Z" />
<glyph unicode="&#xf7;" glyph-name="divide" horiz-adv-x="584" d="M49 375H528V265H49V375ZM288 45Q256 45 233 68T210 123Q210 155 233 177T288 200Q321 200 343 178T365 123Q365 91 343 68T288 45ZM288 440Q256 440 233 462T210 517Q210 550 233 572T288 595Q321
595 343 573T365 517Q365 485 343 463T288 440Z" />
<glyph unicode="&#xf8;" glyph-name="oslash" horiz-adv-x="600" d="M98 -23L451 575L508 544L154 -54L98 -23ZM303 -12Q253 -12 204 3T116 50T53 134T29 260Q29 334 52 386T115 470T204 517T303 532Q353 532 402 517T490 470T553 386T577 260Q577 186 554 134T491
50T402 3T303 -12ZM303 120Q320 120 335 126T361 148T380 190T387 260Q387 302 380 329T362 372T335 393T303 400Q287 400 272 394T244 372T225 330T218 260Q218 218 225 191T244 148T271 127T303 120Z" />
<glyph unicode="&#xf9;" glyph-name="ugrave" horiz-adv-x="613" d="M228 -12Q158 -12 120 19T66 103T51 218V520H235V218Q235 178 250 156T302 133Q319 133 332 138T357 151T377 169V520H561V178Q561 127 561 83T564 0H437L397 63H392Q376 46 352 29T296 0T228
-12ZM250 574L137 720H290L362 574H250Z" />
<glyph unicode="&#xfa;" glyph-name="uacute" horiz-adv-x="613" d="M228 -12Q158 -12 120 19T66 103T51 218V520H235V218Q235 178 250 156T302 133Q319 133 332 138T357 151T377 169V520H561V178Q561 127 561 83T564 0H437L397 63H392Q376 46 352 29T296 0T228
-12ZM250 574L323 720H476L362 574H250Z" />
<glyph unicode="&#xfb;" glyph-name="ucircumflex" horiz-adv-x="613" d="M228 -12Q158 -12 120 19T66 103T51 218V520H235V218Q235 178 250 156T302 133Q319 133 332 138T357 151T377 169V520H561V178Q561 127 561 83T564 0H437L397 63H392Q376 46 352 29T296
0T228 -12ZM116 574L218 717H393L497 574H358L306 663L255 574H116Z" />
<glyph unicode="&#xfc;" glyph-name="udieresis" horiz-adv-x="613" d="M228 -12Q158 -12 120 19T66 103T51 218V520H235V218Q235 178 250 156T302 133Q319 133 332 138T357 151T377 169V520H561V178Q561 127 561 83T564 0H437L397 63H392Q376 46 352 29T296 0T228
-12ZM196 577Q162 577 140 598T117 652Q117 684 139 706T196 728Q231 728 253 706T276 652Q276 620 254 599T196 577ZM416 577Q381 577 359 598T337 652Q337 684 359 706T416 728Q451 728 473 706T495 652Q495 620 473 599T416 577Z" />
<glyph unicode="&#xfd;" glyph-name="yacute" horiz-adv-x="535" d="M201 10L265 134L344 520H539L277 -224H86L201 10ZM-1 520H194L268 164H315L310 0H178L-1 520ZM213 574L286 720H439L325 574H213Z" />
<glyph unicode="&#xfe;" glyph-name="thorn" horiz-adv-x="607" d="M51 -224V748L235 752V468H237Q254 489 290 510T376 532Q438 532 483 500T553 410T577 273Q577 187 548 123T468 24T357 -12Q332 -12 310 -6T270 13T237 43H235V-224H51ZM305 130Q336 130 354
149T380 198T388 264Q388 313 376 339T346 376T307 387Q292 387 278 382T253 368T235 348V196Q236 179 245 164T270 140T305 130Z" />
<glyph unicode="&#xff;" glyph-name="ydieresis" horiz-adv-x="535" d="M201 10L265 134L344 520H539L277 -224H86L201 10ZM-1 520H194L268 164H315L310 0H178L-1 520ZM158 577Q124 577 102 598T79 652Q79 684 101 706T158 728Q193 728 215 706T238 652Q238 620
216 599T158 577ZM378 577Q343 577 321 598T299 652Q299 684 321 706T378 728Q413 728 435 706T457 652Q457 620 435 599T378 577Z" />
<glyph unicode="&#x2013;" glyph-name="endash" horiz-adv-x="565" d="M41 333H523V213H41V333Z" />
<glyph unicode="&#x2014;" glyph-name="emdash" horiz-adv-x="937" d="M41 333H894V213H41V333Z" />
<glyph unicode="&#x2018;" glyph-name="quoteleft" horiz-adv-x="333" d="M78 439L158 760L293 741L257 439H78Z" />
<glyph unicode="&#x2019;" glyph-name="quoteright" horiz-adv-x="333" d="M175 439L40 458L77 760H255L175 439Z" />
<glyph unicode="&#x201a;" glyph-name="quotesinglbase" horiz-adv-x="333" d="M40 -121L77 181H255L175 -140L40 -121Z" />
<glyph unicode="&#x201c;" glyph-name="quotedblleft" horiz-adv-x="577" d="M322 439L401 760L536 741L500 439H322ZM78 439L158 760L293 741L257 439H78Z" />
<glyph unicode="&#x201d;" glyph-name="quotedblright" horiz-adv-x="577" d="M419 439L284 458L320 760H498L419 439ZM175 439L40 458L77 760H255L175 439Z" />
<glyph unicode="&#x201e;" glyph-name="quotedblbase" horiz-adv-x="577" d="M419 -140L284 -121L320 181H498L419 -140ZM175 -140L40 -121L77 181H255L175 -140Z" />
<glyph unicode="&#x2022;" glyph-name="bullet" horiz-adv-x="424" d="M212 134Q175 134 144 152T95 201T77 270Q77 308 95 338T144 387T212 405Q250 405 280 387T329 339T347 270Q347 232 329 201T281 152T212 134Z" />
<glyph unicode="&#x2039;" glyph-name="guilsinglleft" horiz-adv-x="383" d="M306 46L51 234V346L306 534V390L116 248V332L306 190V46Z" />
<glyph unicode="&#x203a;" glyph-name="guilsinglright" horiz-adv-x="383" d="M77 46V190L267 332V248L77 390V534L332 346V234L77 46Z" />
</font>
</defs>
</svg>
