<?xml version="1.0" standalone="no"?>
<!DOCTYPE svg PUBLIC "-//W3C//DTD SVG 1.1//EN" "http://www.w3.org/Graphics/SVG/1.1/DTD/svg11.dtd">
<svg xmlns="http://www.w3.org/2000/svg">
<defs >
<font id="Murecho" horiz-adv-x="888" ><font-face
    font-family="Murecho Medium"
    units-per-em="1000"
    panose-1="2 11 0 3 2 2 4 2 2 4"
    ascent="1160"
    descent="-288"
    alphabetic="0" />
<glyph unicode=" " glyph-name="space" horiz-adv-x="228" />
<glyph unicode="!" glyph-name="exclam" horiz-adv-x="279" d="M73 728H207L189 241H90L73 728ZM140 -12Q106 -12 82 12T57 71Q57 106 81 130T140 154Q174 154 198 130T222 71Q222 36 198 12T140 -12Z" />
<glyph unicode="&quot;" glyph-name="quotedbl" horiz-adv-x="454" d="M70 479L55 760H182L167 479H70ZM287 479L272 760H399L384 479H287Z" />
<glyph unicode="#" glyph-name="numbersign" horiz-adv-x="617" d="M403 642H486L418 0H334L403 642ZM57 246H545L538 164H50L57 246ZM199 642H282L213 0H130L199 642ZM78 478H566L560 396H72L78 478Z" />
<glyph unicode="$" glyph-name="dollar" horiz-adv-x="522" d="M218 66L251 10Q221 10 183 14T110 27T51 46L66 140Q101 126 148 116T242 106Q271 106 294 116T330 144T344 188Q344 221 323 242T270 278T201 310T132 349T78 404T57 489Q57 542 85 581T159 642T261
665L218 604V763H302V610L256 665Q319 666 365 658T446 636L430 540Q404 550 366 559T279 569Q248 569 227 559T194 533T183 497Q183 468 204 449T257 414T327 382T396 342T450 285T471 198Q471 146 446 104T372 37T254 10L302 71V-89H218V66Z" />
<glyph unicode="%" glyph-name="percent" horiz-adv-x="899" d="M585 673H665L293 0H214L585 673ZM213 308Q162 308 126 332T69 399T49 496Q49 551 69 593T125 659T213 684Q263 684 299 660T356 593T376 496Q376 442 356 400T300 333T213 308ZM213 374Q250 374
267 408T285 496Q285 550 268 584T213 618Q176 618 158 584T140 496Q140 442 158 408T213 374ZM666 -11Q616 -11 580 13T523 80T503 177Q503 232 523 274T579 340T666 365Q717 365 754 341T810 274T830 177Q830 123 811 81T754 14T666 -11ZM666 55Q704 55 722 89T740
177Q740 231 722 265T666 299Q630 299 612 265T594 177Q594 123 612 89T666 55Z" />
<glyph unicode="&amp;" glyph-name="ampersand" horiz-adv-x="695" d="M210 361Q181 393 161 425T130 491T119 557Q119 609 143 650T210 715T308 740Q357 740 398 721T464 664T489 576Q489 540 472 505T420 438T331 376L272 438Q301 458 325 478T362 522T376 573Q376
608 359 632T309 656Q286 656 270 644T244 611T235 567Q235 540 245 516T270 471T301 433L636 67L552 -11L210 361ZM281 -11Q215 -11 164 14T85 84T56 185Q56 256 98 310T206 404L266 336Q244 321 224 302T192 258T180 202Q180 165 197 140T242 102T302 89Q343
89 375 108T432 159L504 95Q458 47 405 18T281 -11ZM470 189Q503 229 519 285T537 406H651Q648 319 615 248T536 124L470 189Z" />
<glyph unicode="&apos;" glyph-name="quotesingle" horiz-adv-x="237" d="M70 479L55 760H182L167 479H70Z" />
<glyph unicode="(" glyph-name="parenleft" horiz-adv-x="346" d="M227 -114Q176 -58 137 15T75 176T52 360Q52 456 74 543T136 705T227 834H309Q263 774 229 698T175 536T156 360Q156 269 175 183T228 22T309 -114H227Z" />
<glyph unicode=")" glyph-name="parenright" horiz-adv-x="345" d="M35 -114Q83 -54 117 21T170 183T189 360Q189 450 170 536T117 698T35 834H118Q170 779 209 705T270 544T293 360Q293 264 271 177T209 16T118 -114H35Z" />
<glyph unicode="*" glyph-name="asterisk" horiz-adv-x="453" d="M207 543L181 729Q223 739 264 729L238 543L264 356Q223 346 181 356L207 543ZM214 529L40 600Q52 642 82 672L230 556L405 485Q399 465 389 447T363 413L214 529ZM230 529L82 413Q52 443 40 485L214
556L363 672Q379 656 389 638T405 600L230 529ZM222 489Q201 489 186 505T170 543Q170 564 185 579T222 595Q244 595 260 580T276 543Q276 521 260 505T222 489Z" />
<glyph unicode="+" glyph-name="plus" horiz-adv-x="583" d="M251 83V557H331V83H251ZM54 360H528V280H54V360Z" />
<glyph unicode="," glyph-name="comma" horiz-adv-x="254" d="M25 -125L66 148H194L119 -138L25 -125Z" />
<glyph unicode="-" glyph-name="hyphen" horiz-adv-x="420" d="M45 330H374V240H45V330Z" />
<glyph unicode="." glyph-name="period" horiz-adv-x="254" d="M136 -11Q101 -11 78 12T54 72Q54 107 77 130T136 154Q170 154 194 131T218 72Q218 36 194 13T136 -11Z" />
<glyph unicode="/" glyph-name="slash" horiz-adv-x="407" d="M303 740H394L110 -26H18L303 740Z" />
<glyph unicode="0" glyph-name="zero" horiz-adv-x="599" d="M299 -12Q215 -12 159 32T73 158T44 347Q44 455 73 535T158 660T299 704Q383 704 440 660T525 536T553 347Q553 239 525 158T440 33T299 -12ZM299 89Q344 89 371 118T411 205T424 347Q424 431 412 488T372
574T300 604Q255 604 228 575T187 488T174 347Q174 263 187 206T227 119T299 89Z" />
<glyph unicode="1" glyph-name="one" horiz-adv-x="501" d="M224 573H222L68 502V607L252 696H350V0H224V573Z" />
<glyph unicode="2" glyph-name="two" horiz-adv-x="572" d="M46 79Q123 148 183 202T287 303T352 392T375 481Q375 515 361 541T320 583T251 599Q210 599 171 586T97 555L62 644Q101 667 156 685T275 704Q348 704 399 677T477 602T504 493Q504 431 479 379T409
280T308 185T191 85L171 104H517L511 0H46V79Z" />
<glyph unicode="3" glyph-name="three" horiz-adv-x="549" d="M240 -11Q180 -11 126 4T37 37L65 129Q95 117 140 105T231 93Q281 93 313 108T360 150T376 207Q376 235 364 256T330 290T279 311T218 318H158L163 413H217Q241 413 265 418T311 435T344 466T357 513Q357
551 328 576T239 602Q198 602 160 592T92 569L69 659Q106 678 158 691T267 705Q332 705 381 684T457 626T484 537Q484 477 450 434T345 369V367Q391 360 427 337T485 278T507 194Q507 136 474 90T381 16T240 -11Z" />
<glyph unicode="4" glyph-name="four" horiz-adv-x="578" d="M337 0V436L339 579L337 580L286 492L142 274V272H550L544 172H20V260L304 696H462V0H337Z" />
<glyph unicode="5" glyph-name="five" horiz-adv-x="553" d="M233 -11Q177 -11 126 2T42 30L64 125Q94 113 137 103T225 93Q275 93 309 110T362 156T381 221Q381 284 328 314T178 345Q151 345 129 342T83 334L81 335L115 693H481L474 589H214L199 435Q209 438
225 440T261 442Q378 442 445 387T512 232Q512 162 477 107T380 21T233 -11Z" />
<glyph unicode="6" glyph-name="six" horiz-adv-x="589" d="M300 -11Q216 -11 159 27T72 132T42 282Q42 387 74 467T166 602T303 682T474 706V606Q395 608 333 583T230 509T175 384H177Q203 420 245 438T336 457Q399 457 446 430T521 353T549 235Q549 165 519
110T432 22T300 -11ZM300 86Q335 86 362 103T404 153T420 228Q420 268 406 298T364 346T300 363Q273 363 248 354T203 326T172 280Q168 229 181 185T224 113T300 86Z" />
<glyph unicode="7" glyph-name="seven" horiz-adv-x="530" d="M302 500L345 587V588H31V693H491V610L204 0H66L302 500Z" />
<glyph unicode="8" glyph-name="eight" horiz-adv-x="593" d="M293 -11Q214 -11 158 14T71 82T41 177Q41 239 82 289T197 365L291 315Q261 308 234 291T189 248T171 188Q171 159 186 134T230 94T297 79Q334 79 362 94T405 133T421 187Q421 225 399 251T341 293T269
316L183 348V361Q125 388 95 430T64 522Q64 579 96 619T182 681T300 703Q370 703 420 679T499 616T527 528Q527 474 492 430T396 360L302 407Q324 413 347 428T386 466T402 519Q402 543 390 564T353 600T295 615Q262 615 238 602T202 567T189 521Q189 480 225 449T325
406L409 377V364Q446 350 478 327T531 269T551 189Q551 131 519 86T428 15T293 -11Z" />
<glyph unicode="9" glyph-name="nine" horiz-adv-x="589" d="M288 707Q372 707 429 669T516 564T546 413Q546 309 514 229T423 94T286 14T115 -10V90Q193 89 255 113T359 187T414 312H412Q385 276 343 258T252 239Q190 239 142 266T67 343T39 461Q39 531 70 586T157
674T288 707ZM288 610Q254 610 227 593T184 543T169 468Q169 428 183 398T224 350T288 333Q315 333 340 342T385 370T417 416Q420 467 407 511T364 582T288 610Z" />
<glyph unicode=":" glyph-name="colon" horiz-adv-x="254" d="M135 326Q100 326 77 350T54 409Q54 444 77 467T135 491Q169 491 193 468T217 409Q217 374 193 350T135 326ZM135 -11Q101 -11 78 12T54 72Q54 107 77 130T135 154Q169 154 193 131T218 72Q218 36
194 13T135 -11Z" />
<glyph unicode=";" glyph-name="semicolon" horiz-adv-x="254" d="M127 327Q92 327 69 350T45 410Q45 445 68 468T127 491Q161 491 185 468T209 410Q209 374 185 351T127 327ZM25 -125L66 148H194L119 -138L25 -125Z" />
<glyph unicode="&lt;" glyph-name="less" horiz-adv-x="567" d="M68 277V363L499 561V472L154 320V319L499 168V79L68 277Z" />
<glyph unicode="=" glyph-name="equal" horiz-adv-x="582" d="M55 480H528V401H55V480ZM55 239H528V160H55V239Z" />
<glyph unicode="&gt;" glyph-name="greater" horiz-adv-x="567" d="M68 168L413 319V320L68 472V561L499 363V277L68 79V168Z" />
<glyph unicode="?" glyph-name="question" horiz-adv-x="447" d="M146 240Q144 250 143 263T141 285Q141 322 155 350T190 402T231 448T266 495T280 550Q280 589 251 610T170 632Q148 632 127 629T85 619L78 718Q105 728 136 733T203 739Q264 739 310 719T381
661T407 573Q407 526 392 492T354 430T308 377T270 325T254 262Q254 257 254 252T255 240H146ZM201 -11Q166 -11 142 12T118 71Q118 107 142 130T201 154Q235 154 259 131T283 71Q283 36 259 13T201 -11Z" />
<glyph unicode="@" glyph-name="at" horiz-adv-x="864" d="M407 -156Q305 -156 225 -110T98 18T51 210Q51 297 81 373T168 508T299 599T467 632Q568 632 647 591T771 478T817 311Q817 239 792 178T722 80T621 42Q583 42 562 60T533 110T529 178H527Q497 110 453
74T359 37Q306 37 272 76T237 182Q237 229 254 277T304 366T384 432T490 457Q525 457 560 448T619 423Q612 375 604 329T590 241T585 169T596 121T630 103Q660 103 686 130T728 202T745 303Q745 383 711 441T615 532T468 565Q393 565 331 540T222 467T149 355T123
214Q123 123 160 55T262 -52T413 -91Q447 -91 480 -85T535 -71L549 -132Q516 -143 480 -149T407 -156ZM390 111Q411 111 430 124T464 163T492 221T511 296L526 382Q521 385 508 389T479 393Q450 393 424 376T377 330T345 266T333 194Q333 156 347 134T390 111Z"
/>
<glyph unicode="A" glyph-name="A" horiz-adv-x="633" d="M235 728H400L622 0H487L357 485L318 621H316L277 485L148 0H13L235 728ZM218 299H417L440 198H195L218 299Z" />
<glyph unicode="B" glyph-name="B" horiz-adv-x="605" d="M223 -4Q174 -4 134 -2T64 2V723Q105 726 158 728T261 731Q324 731 375 722T464 692T521 636T542 548Q542 494 508 449T408 385L413 386Q456 376 491 351T546 290T567 205Q567 145 545 105T478 41T370
7T223 -4ZM268 97Q304 97 333 103T385 122T419 158T431 214Q431 273 390 302T285 331H193V97Q209 96 228 96T268 97ZM270 425Q317 425 348 438T395 476T411 531Q411 584 377 608T279 633Q254 633 229 631T193 628V425H270Z" />
<glyph unicode="C" glyph-name="C" horiz-adv-x="604" d="M389 -12Q297 -12 231 17T121 97T56 215T35 357Q35 472 79 558T204 692T395 740Q451 740 498 730T573 708L557 603Q526 615 486 623T403 632Q333 632 281 601T200 509T172 363Q172 281 198 221T277 129T404
96Q443 96 484 103T557 124L570 20Q540 7 491 -2T389 -12Z" />
<glyph unicode="D" glyph-name="D" horiz-adv-x="691" d="M233 -4Q181 -4 141 -2T64 2V723Q113 727 167 729T270 731Q400 731 485 688T613 566T655 375Q655 247 607 163T464 38T233 -4ZM259 101Q341 101 399 129T488 218T519 372Q519 455 491 512T409 597T276
626Q255 626 234 626T194 623V103Q209 102 224 102T259 101Z" />
<glyph unicode="E" glyph-name="E" horiz-adv-x="538" d="M64 728H487L481 620H194V428H461L455 321H194V108H501L494 0H64V728Z" />
<glyph unicode="F" glyph-name="F" horiz-adv-x="523" d="M64 728H485L478 620H194V416H457L450 309H194V0H64V728Z" />
<glyph unicode="G" glyph-name="G" horiz-adv-x="669" d="M396 -12Q306 -12 239 15T126 93T59 210T36 358Q36 443 61 513T134 634T250 712T403 740Q465 740 516 729T599 705L580 598Q546 611 504 621T408 632Q355 632 312 614T237 561T189 477T172 363Q172 277
201 218T283 127T404 96Q431 96 454 101T495 111V342L548 285H371L377 386H617V28Q591 18 556 9T479 -6T396 -12Z" />
<glyph unicode="H" glyph-name="H" horiz-adv-x="682" d="M64 728H194V432H486V728H616V0H486V320H194V0H64V728Z" />
<glyph unicode="I" glyph-name="I" horiz-adv-x="260" d="M64 728H194V0H64V728Z" />
<glyph unicode="J" glyph-name="J" horiz-adv-x="260" d="M-14 -38Q17 -38 34 -32T57 -6T64 58V728H194V60Q194 -8 178 -49T135 -110T70 -137T-8 -144L-14 -38Z" />
<glyph unicode="K" glyph-name="K" horiz-adv-x="605" d="M64 728H194V385L259 432L437 728H596L360 397L608 0H453L261 324L194 280V0H64V728Z" />
<glyph unicode="L" glyph-name="L" horiz-adv-x="513" d="M64 728H194V108H496L489 0H64V728Z" />
<glyph unicode="M" glyph-name="M" horiz-adv-x="861" d="M95 728H262L350 452L429 177H430L511 452L600 728H766L795 0H669L660 281L651 545H649L480 0H372L209 545H207L197 281L187 0H64L95 728Z" />
<glyph unicode="N" glyph-name="N" horiz-adv-x="685" d="M64 728H214Q288 592 358 465T499 195H502L497 422V728H619V0H481Q426 100 383 179T304 323T240 441T185 544H183L186 317V0H64V728Z" />
<glyph unicode="O" glyph-name="O" horiz-adv-x="717" d="M358 -12Q281 -12 222 16T121 96T58 215T36 364Q36 444 57 512T120 632T221 711T358 740Q436 740 495 712T596 632T659 513T681 364Q681 284 660 216T597 96T496 17T358 -12ZM358 96Q405 96 440 115T499
171T534 256T545 364Q545 423 534 471T500 556T441 612T358 632Q311 632 276 613T218 557T183 472T171 364Q171 305 182 257T217 172T276 116T358 96Z" />
<glyph unicode="P" glyph-name="P" horiz-adv-x="586" d="M64 723Q106 727 154 729T254 731Q317 731 370 720T464 684T528 617T551 511Q551 437 519 385T425 306T279 278Q257 278 235 279T193 282V0H64V723ZM258 381Q334 381 378 414T422 510Q422 570 384 599T272
628Q254 628 233 628T193 625V386Q203 385 221 383T258 381Z" />
<glyph unicode="Q" glyph-name="Q" horiz-adv-x="717" d="M359 0Q254 0 182 47T73 176T36 366Q36 446 57 513T120 632T221 711T358 740Q436 740 495 712T596 633T659 518T681 379Q681 316 665 265T621 174T560 108V106L715 107L709 0H359ZM359 99Q406 99 441 118T499
173T534 258T545 366Q545 424 534 472T500 557T441 612T358 632Q311 632 276 613T218 557T183 473T171 366Q171 307 183 258T218 173T276 118T359 99Z" />
<glyph unicode="R" glyph-name="R" horiz-adv-x="591" d="M64 723Q107 727 155 729T256 731Q358 731 422 708T518 639T550 521Q550 471 530 433T478 369T410 331V329L576 0H436L295 297H193V0H64V723ZM284 396Q319 396 349 409T399 448T419 514Q419 574 383 602T273
630Q250 630 230 629T193 626V396H284Z" />
<glyph unicode="S" glyph-name="S" horiz-adv-x="544" d="M242 -12Q182 -12 128 1T39 28L61 130Q97 119 144 107T237 95Q277 95 308 107T356 143T373 198Q373 231 353 253T299 292T226 325Q194 340 162 357T104 398T62 455T46 533Q46 600 79 646T171 716T301 740Q352
740 398 730T475 705L455 603Q430 613 389 623T305 633Q246 633 212 608T177 540Q177 508 197 487T251 449T321 415Q354 401 386 384T446 343T489 286T506 207Q506 141 474 92T382 15T242 -12Z" />
<glyph unicode="T" glyph-name="T" horiz-adv-x="541" d="M206 619H9L16 728H531L525 619H335V0H206V619Z" />
<glyph unicode="U" glyph-name="U" horiz-adv-x="674" d="M337 -12Q249 -12 188 21T94 120T61 287V728H190V279Q190 190 227 142T337 94Q409 94 446 142T483 279V728H612V287Q612 187 580 121T486 21T337 -12Z" />
<glyph unicode="V" glyph-name="V" horiz-adv-x="630" d="M4 728H146L263 302L314 121H316L367 302L483 728H625L394 0H235L4 728Z" />
<glyph unicode="W" glyph-name="W" horiz-adv-x="900" d="M9 728H149L213 403L259 147H261L315 403L385 728H514L585 403L639 147H641L687 403L751 728H890L724 0H573L451 544H449L326 0H175L9 728Z" />
<glyph unicode="X" glyph-name="X" horiz-adv-x="595" d="M577 0L371 372L316 384L162 728H18L224 356L280 344L433 0H577ZM162 0L316 344L371 356L577 728H433L280 384L224 372L18 0H162Z" />
<glyph unicode="Y" glyph-name="Y" horiz-adv-x="592" d="M232 285L5 728H148L226 550L296 378H298L368 550L447 728H589L362 285V0H232V285Z" />
<glyph unicode="Z" glyph-name="Z" horiz-adv-x="568" d="M26 77L369 618V620H47L53 728H532V651L190 110V108H537L531 0H26V77Z" />
<glyph unicode="[" glyph-name="bracketleft" horiz-adv-x="312" d="M67 849H277L274 776H168V-56H277L274 -129H67V849Z" />
<glyph unicode="\" glyph-name="backslash" horiz-adv-x="413" d="M17 739H109L393 -27H301L17 739Z" />
<glyph unicode="]" glyph-name="bracketright" horiz-adv-x="313" d="M38 -56H144V776H35L38 849H245V-129H35L38 -56Z" />
<glyph unicode="^" glyph-name="asciicircum" horiz-adv-x="565" d="M244 674H320L501 299H421L282 595V595L143 299H63L244 674Z" />
<glyph unicode="_" glyph-name="underscore" horiz-adv-x="598" d="M0 -74H565V-160H0V-74Z" />
<glyph unicode="`" glyph-name="grave" horiz-adv-x="289" d="M111 601L4 744H112L192 601H111Z" />
<glyph unicode="a" glyph-name="a" horiz-adv-x="531" d="M191 -11Q143 -11 108 8T53 62T33 140Q33 182 48 210T89 256T152 280T229 287H340V340Q340 359 337 375T323 405T294 425T243 432Q201 432 160 423T88 400L67 490Q92 502 125 511T194 525T265 531Q327
531 367 518T429 480T460 421T469 344V125Q469 94 470 60T473 0H379L354 71H352Q323 33 282 11T191 -11ZM235 76Q269 76 300 94T342 143V217H249Q234 217 218 215T187 206T164 185T155 147Q155 114 177 95T235 76Z" />
<glyph unicode="b" glyph-name="b" horiz-adv-x="581" d="M331 -11Q296 -11 268 -1T218 28T180 71H178L150 0H58Q59 15 60 36T61 80T62 125T62 162V748L191 752V455H193Q214 482 254 506T345 531Q408 531 453 499T521 409T545 270Q545 186 517 123T441 24T331
-11ZM296 90Q337 90 362 114T400 179T412 264Q412 320 398 356T359 410T299 428Q277 428 256 420T219 397T191 367V172Q196 153 210 134T246 102T296 90Z" />
<glyph unicode="c" glyph-name="c" horiz-adv-x="485" d="M300 -11Q220 -11 161 21T68 113T35 258Q35 338 67 399T161 496T313 531Q346 531 384 525T453 505L439 410Q417 419 385 425T319 432Q271 432 237 412T185 353T167 261Q167 205 188 167T245 109T326 89Q362
89 394 96T447 110L458 17Q432 6 388 -2T300 -11Z" />
<glyph unicode="d" glyph-name="d" horiz-adv-x="580" d="M245 -11Q183 -11 136 23T62 117T35 256Q35 337 62 399T137 496T249 531Q293 531 329 515T386 473H388V748L518 752V145Q518 126 518 99T519 45T521 0H430L402 71H400Q375 34 336 12T245 -11ZM284 91Q325
91 353 116T388 172V383Q370 405 344 418T289 431Q251 431 224 408T182 346T167 257Q167 206 181 169T222 111T284 91Z" />
<glyph unicode="e" glyph-name="e" horiz-adv-x="533" d="M298 -11Q211 -11 153 21T65 114T35 256Q35 312 50 361T97 449T176 509T285 531Q348 531 392 508T461 444T495 349T494 232H104L172 282Q155 219 168 175T219 108T316 85Q356 85 395 93T461 110L475 21Q439
7 392 -2T298 -11ZM105 301H380Q381 306 381 310T381 316Q381 353 371 381T339 425T280 442Q238 442 211 417T172 353T165 270L105 301Z" />
<glyph unicode="f" glyph-name="f" horiz-adv-x="337" d="M83 426H16L23 516L83 520V543Q83 646 133 702T276 759Q296 759 316 757T352 750L341 652Q333 654 324 655T303 656Q268 656 248 641T219 599T211 543V520H324L318 426H213V0H83V426Z" />
<glyph unicode="g" glyph-name="g" horiz-adv-x="554" d="M264 139Q202 139 152 163T72 231T43 335Q43 394 72 438T151 506T264 531Q328 531 377 507T456 438T485 335Q485 276 457 232T379 163T264 139ZM264 220Q297 220 318 234T350 275T361 335Q361 368 351
394T319 434T264 449Q232 449 211 435T179 394T168 335Q168 301 179 275T211 235T264 220ZM255 -235Q210 -235 166 -228T85 -204T28 -161T6 -95Q6 -52 28 -24T85 24V26Q68 38 60 52T51 85Q51 114 73 141T124 191L174 167Q160 154 152 140T143 112Q143 96 157 89T198
80L333 72Q361 70 396 66T463 48T515 10T536 -58Q536 -103 507 -143T415 -209T255 -235ZM264 -140Q321 -140 355 -130T406 -103T422 -68Q422 -51 413 -41T387 -26T352 -18T316 -14L197 -7Q175 -5 162 -2T140 6L152 4Q134 -6 122 -23T109 -62Q109 -84 121 -98T154
-122T204 -135T264 -140ZM322 520H542V452H422L322 520Z" />
<glyph unicode="h" glyph-name="h" horiz-adv-x="591" d="M62 748L192 752V454H193Q215 476 240 493T295 521T357 531Q399 531 430 517T484 475T517 406T529 312V0H400V306Q400 339 393 362T374 399T344 421T307 428Q281 428 260 419T221 396T192 369V0H62V748Z" />
<glyph unicode="i" glyph-name="i" horiz-adv-x="258" d="M65 520L194 524V0H65V520ZM129 593Q98 593 76 613T53 665Q53 697 75 717T129 737Q160 737 182 717T205 665Q205 633 183 613T129 593Z" />
<glyph unicode="j" glyph-name="j" horiz-adv-x="258" d="M8 -192L0 -90Q26 -90 40 -84T59 -62T64 -16V520L194 524V-34Q194 -99 174 -133T113 -180T8 -192ZM129 593Q97 593 75 613T52 665Q52 697 74 717T129 737Q160 737 182 717T205 665Q205 633 183 613T129 593Z" />
<glyph unicode="k" glyph-name="k" horiz-adv-x="535" d="M62 748L191 752V303L264 337L221 295L363 520H515L308 263L307 330L541 0H380L218 275L277 241L191 201V0H62V748Z" />
<glyph unicode="l" glyph-name="l" horiz-adv-x="255" d="M62 748L191 752V0H62V748Z" />
<glyph unicode="m" glyph-name="m" horiz-adv-x="890" d="M62 366Q62 409 62 445T59 520L169 524L178 454H181Q200 471 224 488T279 518T346 531Q393 531 430 511T484 449H487Q509 469 535 488T593 519T662 531Q703 531 734 517T786 476T817 409T828 320V0H701V300Q701
344 691 372T662 414T616 428Q590 428 568 418T529 392T498 361L506 395Q507 369 508 349T509 302V0H381V299Q381 335 374 364T350 410T300 428Q275 428 255 419T218 396T189 369V0H62V366Z" />
<glyph unicode="n" glyph-name="n" horiz-adv-x="590" d="M62 362Q62 407 62 446T59 520L170 524L179 454H183Q200 470 225 488T284 518T357 531Q398 531 429 517T483 476T516 408T528 315V0H399V311Q399 344 391 366T370 402T341 422T307 428Q281 428 260 419T221
397T191 369V0H62V362Z" />
<glyph unicode="o" glyph-name="o" horiz-adv-x="584" d="M293 -11Q242 -11 196 5T114 54T57 138T35 260Q35 330 56 381T114 466T196 515T293 531Q343 531 389 515T472 466T529 382T550 260Q550 190 529 139T472 54T390 5T293 -11ZM293 83Q323 83 346 95T385 129T409
184T417 260Q417 303 409 336T385 391T346 425T293 437Q263 437 240 425T201 391T177 336T168 260Q168 217 176 184T201 129T240 95T293 83Z" />
<glyph unicode="p" glyph-name="p" horiz-adv-x="582" d="M62 351Q62 394 62 438T59 520L170 524L179 450H182Q211 482 252 506T346 531Q409 531 453 499T522 409T546 270Q546 186 518 123T441 24T332 -11Q300 -11 274 -2T228 23T193 58H192V-224H62V351ZM296
90Q338 90 363 114T401 179T413 264Q413 320 399 356T360 410T300 428Q278 428 257 420T220 397T192 367V174Q197 153 211 134T247 103T296 90Z" />
<glyph unicode="q" glyph-name="q" horiz-adv-x="579" d="M388 65H386Q368 36 332 13T243 -11Q180 -11 134 23T61 117T35 256Q35 337 61 399T136 496T249 531Q291 531 330 513T398 461H400L409 524L520 520Q519 487 518 445T517 361V-224H388V65ZM284 91Q325 91
352 116T388 172V383Q370 405 344 418T289 431Q251 431 224 408T182 346T167 257Q167 206 181 169T222 111T284 91Z" />
<glyph unicode="r" glyph-name="r" horiz-adv-x="380" d="M62 0V362Q62 413 61 450T59 520L170 524L181 436H184Q212 480 255 507T360 530V416Q308 421 264 407T191 352V0H62Z" />
<glyph unicode="s" glyph-name="s" horiz-adv-x="447" d="M199 -11Q155 -11 111 -2T35 21L51 109Q68 103 93 97T146 86T200 81Q243 81 265 98T287 141Q287 162 272 176T234 201T183 223Q151 236 119 254T66 302T44 377Q44 425 69 459T139 512T242 531Q283 531
322 523T388 502L373 414Q358 420 337 425T291 435T246 439Q210 439 189 425T168 384Q168 366 181 353T217 330T264 309Q298 296 332 278T389 229T412 150Q412 101 385 65T311 9T199 -11Z" />
<glyph unicode="t" glyph-name="t" horiz-adv-x="368" d="M236 -11Q189 -11 160 3T115 42T93 101T87 176V426H18L24 516L93 520L101 638L216 662V520H340L333 426H216V189Q216 163 222 143T243 109T289 96Q302 96 314 97T338 102L339 4Q323 -1 294 -6T236 -11Z" />
<glyph unicode="u" glyph-name="u" horiz-adv-x="587" d="M234 -11Q171 -11 133 16T78 94T61 209V520H190V212Q190 154 212 123T284 92Q308 92 328 101T366 123T395 151V520H525V158Q525 113 525 74T527 0H436L409 72H405Q388 53 362 34T304 2T234 -11Z" />
<glyph unicode="v" glyph-name="v" horiz-adv-x="520" d="M7 520H145L259 117H261L375 520H513L326 0H193L7 520Z" />
<glyph unicode="w" glyph-name="w" horiz-adv-x="783" d="M9 520H143L232 115H234L272 274L337 520H445L510 274L548 115H550L639 520H774L622 0H490L392 362H390L293 0H160L9 520Z" />
<glyph unicode="x" glyph-name="x" horiz-adv-x="507" d="M145 0L273 234L317 247L500 520H362L234 286L190 273L7 0H145ZM500 0L317 273L273 286L145 520H7L190 247L234 234L362 0H500Z" />
<glyph unicode="y" glyph-name="y" horiz-adv-x="511" d="M208 10L252 95L369 520H507L234 -224H99L208 10ZM6 520H143L255 117H288L282 1H191L6 520Z" />
<glyph unicode="z" glyph-name="z" horiz-adv-x="471" d="M25 80L291 422H43L49 520H444V438L183 100L451 99L444 0H25V80Z" />
<glyph unicode="{" glyph-name="braceleft" horiz-adv-x="367" d="M326 -129Q218 -129 168 -95T118 21Q118 51 122 87T132 160T137 224Q137 254 129 276T100 311T37 328V393Q79 397 100 410T129 445T137 496Q137 525 132 561T123 633T118 699Q118 782 169 815T330
849L326 784Q260 784 237 758T214 680Q214 658 218 627T225 563T229 502Q229 457 215 428T176 383T115 360V360Q151 353 176 337T215 293T229 218Q229 191 226 158T218 94T214 41Q214 -11 239 -37T330 -64L326 -129Z" />
<glyph unicode="|" glyph-name="bar" horiz-adv-x="262" d="M86 810H172V-80H86V810Z" />
<glyph unicode="}" glyph-name="braceright" horiz-adv-x="364" d="M39 849Q147 849 198 816T249 699Q249 670 245 634T235 561T229 496Q229 467 237 445T266 410T328 393V328Q287 325 266 312T237 276T229 224Q229 197 234 161T244 88T249 21Q249 -61 198 -95T35
-129L39 -64Q106 -64 129 -38T152 41Q152 63 149 94T141 158T137 218Q137 264 151 292T190 337T250 360V360Q216 367 191 383T151 428T137 502Q137 530 141 562T148 626T152 680Q152 731 128 757T35 784L39 849Z" />
<glyph unicode="~" glyph-name="asciitilde" horiz-adv-x="580" d="M401 238Q371 238 342 250T284 277T230 304T182 316Q151 316 139 292T120 243L57 252Q69 315 98 355T180 396Q210 396 239 384T297 357T351 330T399 318Q430 318 442 342T462 391L525 383Q513
319 484 279T401 238Z" />
<glyph unicode="&#xa0;" glyph-name="uni00A0" horiz-adv-x="258" />
<glyph unicode="&#xa1;" glyph-name="exclamdown" horiz-adv-x="279" d="M90 279H189L207 -208H73L90 279ZM140 366Q106 366 82 389T57 449Q57 484 81 507T140 531Q174 531 198 508T222 449Q222 413 198 390T140 366Z" />
<glyph unicode="&#xa2;" glyph-name="cent" horiz-adv-x="522" d="M260 149L298 88Q229 88 175 116T89 199T58 335Q58 411 87 467T170 556T297 589L260 528V688H345V531L327 589Q346 590 369 588T415 580T455 567L443 473Q424 480 396 486T333 492Q295 492 262
478T207 431T186 341Q186 285 207 251T261 201T331 185Q366 185 396 192T447 206L458 114Q430 103 389 96T302 88L345 147V-12H260V149Z" />
<glyph unicode="&#xa3;" glyph-name="sterling" horiz-adv-x="547" d="M48 62Q76 82 98 108T133 166T146 230Q146 254 140 278T113 340L198 288H51L57 372H124Q117 398 113 421T109 468Q109 532 138 576T218 643T329 666Q374 666 410 659T468 642L456 552Q430
560 403 565T346 570Q290 570 260 542T229 463Q229 440 234 418T246 372H387L381 288H199L253 324Q255 310 256 297T258 270Q258 221 240 176T187 96V94H486L479 0H56L48 62Z" />
<glyph unicode="&#xa4;" glyph-name="currency" horiz-adv-x="700" d="M350 141Q290 141 240 170T161 250T131 360Q131 421 160 470T240 549T350 579Q411 579 460 550T539 470T569 360Q569 300 540 250T460 171T350 141ZM350 219Q389 219 421 238T472 290T491
360Q491 399 472 431T421 482T350 501Q312 501 280 482T229 431T209 360Q209 322 228 290T280 239T350 219ZM84 571L139 626L235 530L180 475L84 571ZM465 190L520 245L616 149L561 94L465 190ZM561 626L616 571L520 475L465 530L561 626ZM180 245L235 190L139
94L84 149L180 245Z" />
<glyph unicode="&#xa5;" glyph-name="yen" horiz-adv-x="546" d="M211 112H59L60 169H211V238H59L60 294H203L16 655H155L272 354H274L392 656H530L343 294H488L487 238H336V169H488L487 112H336V0H211V112Z" />
<glyph unicode="&#xa6;" glyph-name="brokenbar" horiz-adv-x="262" d="M86 810H172V465H86V810ZM86 265H172V-80H86V265Z" />
<glyph unicode="&#xa7;" glyph-name="section" horiz-adv-x="541" d="M232 -84Q190 -84 143 -75T61 -50L77 33Q96 26 122 19T178 8T233 3Q283 3 313 22T343 76Q343 99 327 115T285 143T228 169Q201 180 174 193T123 225T85 270T70 332Q70 393 112 434T223 488L261
423Q225 417 202 397T178 345Q178 322 194 306T236 279T294 253Q330 239 367 219T431 167T457 85Q457 33 428 -5T348 -63T232 -84ZM291 226Q327 234 348 254T369 305Q369 331 352 347T308 377T248 404Q222 415 195 428T143 460T105 505T90 567Q90 617 116 653T190
708T301 728Q341 728 382 719T452 697L436 614Q421 621 398 627T349 637T302 641Q256 641 230 623T203 576Q203 554 218 539T259 512T313 488Q350 473 388 453T451 402T477 321Q477 264 442 224T345 166L291 226Z" />
<glyph unicode="&#xa8;" glyph-name="dieresis" horiz-adv-x="371" d="M87 593Q60 593 43 610T25 653Q25 678 42 695T87 712Q114 712 131 695T149 653Q149 628 132 611T87 593ZM284 593Q257 593 240 610T222 653Q222 678 239 695T284 712Q311 712 328 695T346
653Q346 628 329 611T284 593Z" />
<glyph unicode="&#xa9;" glyph-name="copyright" horiz-adv-x="812" d="M406 1Q333 1 271 26T163 98T91 207T65 342Q65 415 90 477T162 585T271 657T406 683Q479 683 541 658T649 586T721 477T747 342Q747 269 722 207T650 99T541 27T406 1ZM416 153Q354 153 313
177T252 243T231 337Q231 424 282 477T422 531Q456 531 485 525T534 510L523 458Q507 464 483 469T432 474Q366 474 332 439T297 340Q297 298 312 269T356 225T427 210Q455 210 482 216T530 231L540 181Q512 166 481 160T416 153ZM406 44Q469 44 523 66T617 130T680
225T703 342Q703 405 680 459T617 554T523 617T406 640Q343 640 289 618T195 554T132 459T109 342Q109 279 132 225T195 130T289 67T406 44Z" />
<glyph unicode="&#xaa;" glyph-name="ordfeminine" horiz-adv-x="335" d="M122 275Q79 275 53 301T26 366Q26 400 40 419T80 447T136 455H211V487Q211 503 207 514T191 531T152 537Q123 537 100 531T60 517L46 578Q69 588 100 595T169 603Q217 603 244 591T282
555T294 498V356Q294 333 294 315T297 281H235L217 317H215Q198 297 174 286T122 275ZM151 333Q164 333 178 338T201 352T212 375V406H157Q146 406 135 404T116 395T108 372Q108 351 121 342T151 333Z" />
<glyph unicode="&#xab;" glyph-name="guillemotleft" horiz-adv-x="672" d="M608 46L356 249V331L608 534V429L405 261V319L608 151V46ZM316 46L64 249V331L316 534V429L113 261V319L316 151V46Z" />
<glyph unicode="&#xac;" glyph-name="logicalnot" horiz-adv-x="618" d="M472 288H68V367H551V80H472V288Z" />
<glyph unicode="&#xad;" glyph-name="uni00AD" horiz-adv-x="425" d="M48 330H377V240H48V330Z" />
<glyph unicode="&#xae;" glyph-name="registered" horiz-adv-x="650" d="M325 200Q254 200 198 232T110 320T78 447Q78 518 110 574T198 662T325 694Q396 694 452 662T540 574T572 447Q572 376 540 320T452 232T325 200ZM325 240Q385 240 431 266T504 340T531
447Q531 508 505 554T432 627T325 654Q265 654 218 628T145 555T118 447Q118 387 144 340T218 267T325 240ZM241 570Q254 572 275 573T316 575Q366 575 390 555T415 499Q415 473 402 455T358 427V425L428 323H382L316 420H281V323H241V570ZM317 455Q341 455 357
465T374 498Q374 539 317 539Q307 539 299 539T281 537V455H317Z" />
<glyph unicode="&#xaf;" glyph-name="overscore" horiz-adv-x="382" d="M50 612V681H332V612H50Z" />
<glyph unicode="&#xb0;" glyph-name="degree" horiz-adv-x="356" d="M180 456Q145 456 116 472T69 517T52 581Q52 618 69 646T115 691T180 708Q217 708 245 692T291 647T308 581Q308 546 291 518T246 473T180 456ZM180 509Q211 509 231 529T251 581Q251 613 231
633T180 654Q149 654 129 634T109 581Q109 550 129 530T180 509Z" />
<glyph unicode="&#xb1;" glyph-name="plusminus" horiz-adv-x="584" d="M252 83V557H332V83H252ZM55 360H529V280H55V360ZM55 77H529V5H55V77Z" />
<glyph unicode="&#xb2;" glyph-name="uni00B2" horiz-adv-x="358" d="M27 455Q87 507 131 545T199 615T223 681Q223 709 205 726T154 744Q130 744 106 737T60 719L34 784Q59 798 94 809T171 820Q217 820 250 804T300 759T318 690Q318 653 302 623T259 565T200
513T134 460L119 474H325L321 398H27V455Z" />
<glyph unicode="&#xb3;" glyph-name="uni00B3" horiz-adv-x="343" d="M151 391Q113 391 78 400T20 422L39 489Q60 481 88 475T144 468Q185 468 204 483T224 522Q224 541 213 554T182 574T137 582H98L102 650H135Q152 650 170 654T200 670T213 700Q213 718 198
732T146 746Q121 746 98 741T56 728L41 794Q63 805 96 813T167 821Q229 821 268 793T307 718Q307 684 287 658T223 619V618Q265 611 292 583T320 512Q320 477 299 450T239 407T151 391Z" />
<glyph unicode="&#xb4;" glyph-name="acute" horiz-adv-x="289" d="M95 601L175 744H284L176 601H95Z" />
<glyph unicode="&#xb5;" glyph-name="uni00B5" horiz-adv-x="566" d="M228 -12Q166 -12 129 17T76 99T60 223V485H190V212Q190 154 209 123T273 91Q297 91 317 100T354 123T384 151V485H513V158Q513 113 514 74T516 0H424L397 72H394Q377 53 351 34T293 1T228
-12ZM60 392H177V-200H60V392Z" />
<glyph unicode="&#xb6;" glyph-name="paragraph" horiz-adv-x="549" d="M226 320L296 252Q170 251 102 307T33 464Q33 564 102 619T317 674V-80H226V320ZM386 674H476V-80H386V674Z" />
<glyph unicode="&#xb7;" glyph-name="middot" horiz-adv-x="257" d="M136 174Q102 174 78 197T54 257Q54 292 78 315T136 339Q171 339 194 316T218 257Q218 221 195 198T136 174Z" />
<glyph unicode="&#xb8;" glyph-name="cedilla" horiz-adv-x="600" d="M262 -236Q238 -236 214 -232T166 -221L186 -180Q204 -184 223 -186T259 -188Q299 -188 318 -175T338 -138Q338 -117 324 -108T287 -99T240 -108L217 -86L259 1H310L278 -66Q314 -60 342 -66T387
-90T404 -136Q404 -182 365 -209T262 -236Z" />
<glyph unicode="&#xb9;" glyph-name="uni00B9" horiz-adv-x="313" d="M134 726H133L35 684V760L155 816H227V398H134V726Z" />
<glyph unicode="&#xba;" glyph-name="ordmasculine" horiz-adv-x="356" d="M178 274Q137 274 102 291T44 345T22 437Q22 497 44 533T101 586T178 603Q219 603 254 586T312 533T335 437Q335 381 313 345T255 292T178 274ZM178 337Q200 337 215 348T239 381T248
438Q248 473 240 495T216 529T178 541Q156 541 140 530T116 496T108 438Q108 404 116 382T140 348T178 337Z" />
<glyph unicode="&#xbb;" glyph-name="guillemotright" horiz-adv-x="672" d="M356 46V151L559 319V261L356 429V534L608 331V249L356 46ZM64 46V151L267 319V261L64 429V534L316 331V249L64 46Z" />
<glyph unicode="&#xbc;" glyph-name="onequarter" horiz-adv-x="834" d="M134 606H133L35 564V640L155 696H227V278H134V606ZM633 696L241 0H153L546 696H633ZM676 0V259V334H675L646 281L574 171V169H817L813 97H485V161L651 418H767V0H676Z" />
<glyph unicode="&#xbd;" glyph-name="onehalf" horiz-adv-x="831" d="M134 606H133L35 564V640L155 696H227V278H134V606ZM633 696L241 0H153L546 696H633ZM500 57Q560 109 604 147T672 217T696 283Q696 311 678 328T627 346Q603 346 579 339T533 321L507 386Q532
400 567 411T644 422Q690 422 723 406T773 361T791 292Q791 255 775 225T732 167T673 115T607 62L592 76H798L794 0H500V57Z" />
<glyph unicode="&#xbe;" glyph-name="threequarters" horiz-adv-x="864" d="M151 271Q113 271 78 280T20 302L39 369Q60 361 88 355T144 348Q185 348 204 363T224 402Q224 421 213 434T182 454T137 462H98L102 530H135Q152 530 170 534T200 550T213 580Q213 598
198 612T146 626Q121 626 98 621T56 608L41 674Q63 685 96 693T167 701Q229 701 268 673T307 598Q307 564 287 538T223 499V498Q265 491 292 463T320 392Q320 357 299 330T239 287T151 271ZM663 696L271 0H183L576 696H663ZM707 0V259V334H706L677 281L605 171V169H848L844
97H516V161L682 418H798V0H707Z" />
<glyph unicode="&#xbf;" glyph-name="questiondown" horiz-adv-x="447" d="M245 -219Q184 -219 138 -199T66 -141T40 -53Q40 -6 55 28T94 90T139 143T177 195T193 258Q193 264 193 269T192 280H302Q304 270 304 257T305 235Q305 198 292 170T257 118T216 72T181
25T167 -30Q167 -69 196 -90T277 -112Q300 -112 321 -109T362 -99L369 -198Q344 -207 313 -213T245 -219ZM247 366Q213 366 189 389T165 449Q165 484 189 507T247 531Q281 531 305 508T329 449Q329 413 305 390T247 366Z" />
<glyph unicode="&#xc0;" glyph-name="Agrave" horiz-adv-x="633" d="M235 728H400L622 0H487L357 485L318 621H316L277 485L148 0H13L235 728ZM218 299H417L440 198H195L218 299ZM278 772L169 900H280L359 772H278Z" />
<glyph unicode="&#xc1;" glyph-name="Aacute" horiz-adv-x="633" d="M235 728H400L622 0H487L357 485L318 621H316L277 485L148 0H13L235 728ZM218 299H417L440 198H195L218 299ZM276 772L353 900H464L357 772H276Z" />
<glyph unicode="&#xc2;" glyph-name="Acircumflex" horiz-adv-x="633" d="M235 728H400L622 0H487L357 485L318 621H316L277 485L148 0H13L235 728ZM218 299H417L440 198H195L218 299ZM150 772L255 898H379L487 772H387L318 858L250 772H150Z" />
<glyph unicode="&#xc3;" glyph-name="Atilde" horiz-adv-x="633" d="M235 728H400L622 0H487L357 485L318 621H316L277 485L148 0H13L235 728ZM218 299H417L440 198H195L218 299ZM422 891L479 877Q467 829 441 804T380 778Q360 778 342 786T308 806T279 825T254
834Q242 834 231 822T213 782L155 795Q166 843 192 868T254 894Q274 894 292 886T326 866T355 846T380 838Q392 838 403 850T422 891Z" />
<glyph unicode="&#xc4;" glyph-name="Adieresis" horiz-adv-x="633" d="M235 728H400L622 0H487L357 485L318 621H316L277 485L148 0H13L235 728ZM218 299H417L440 198H195L218 299ZM219 776Q192 776 175 793T157 835Q157 860 174 877T219 895Q246 895 263 877T281
835Q281 810 264 793T219 776ZM416 776Q389 776 372 793T354 835Q354 860 371 877T416 895Q443 895 460 878T478 835Q478 810 461 793T416 776Z" />
<glyph unicode="&#xc5;" glyph-name="Aring" horiz-adv-x="633" d="M235 728H400L622 0H487L357 485L318 621H316L277 485L148 0H13L235 728ZM218 299H417L440 198H195L218 299ZM318 709Q290 709 267 723T229 761T215 814Q215 842 229 865T266 901T318 915Q346
915 369 902T407 865T421 814Q421 785 407 761T370 723T318 709ZM318 754Q343 754 360 771T377 814Q377 837 360 854T318 872Q294 872 277 855T259 814Q259 789 276 772T318 754Z" />
<glyph unicode="&#xc6;" glyph-name="AE" horiz-adv-x="841" d="M308 728H472L429 621H389L148 0H13L308 728ZM228 299H399L419 198H205L228 299ZM393 728H790L783 620H523V428H764L758 321H523V108H804L797 0H393V728Z" />
<glyph unicode="&#xc7;" glyph-name="Ccedilla" horiz-adv-x="604" d="M389 -12Q297 -12 231 17T121 97T56 215T35 357Q35 472 79 558T204 692T395 740Q451 740 498 730T573 708L557 603Q526 615 486 623T403 632Q333 632 281 601T200 509T172 363Q172 281 198
221T277 129T404 96Q443 96 484 103T557 124L570 20Q540 7 491 -2T389 -12ZM346 -236Q322 -236 298 -233T250 -222L270 -181Q288 -184 307 -186T343 -189Q383 -189 402 -176T422 -139Q422 -117 408 -108T371 -99T324 -108L301 -87L343 0H394L362 -66Q398 -61 426
-67T471 -90T488 -136Q488 -182 449 -209T346 -236Z" />
<glyph unicode="&#xc8;" glyph-name="Egrave" horiz-adv-x="538" d="M64 728H487L481 620H194V428H461L455 321H194V108H501L494 0H64V728ZM246 772L137 900H248L327 772H246Z" />
<glyph unicode="&#xc9;" glyph-name="Eacute" horiz-adv-x="538" d="M64 728H487L481 620H194V428H461L455 321H194V108H501L494 0H64V728ZM244 772L321 900H432L325 772H244Z" />
<glyph unicode="&#xca;" glyph-name="Ecircumflex" horiz-adv-x="538" d="M64 728H487L481 620H194V428H461L455 321H194V108H501L494 0H64V728ZM117 772L222 898H346L454 772H354L285 858L217 772H117Z" />
<glyph unicode="&#xcb;" glyph-name="Edieresis" horiz-adv-x="538" d="M64 728H487L481 620H194V428H461L455 321H194V108H501L494 0H64V728ZM187 776Q160 776 143 793T125 835Q125 860 142 877T187 895Q214 895 231 877T249 835Q249 810 232 793T187 776ZM384
776Q357 776 340 793T322 835Q322 860 339 877T384 895Q411 895 428 878T446 835Q446 810 429 793T384 776Z" />
<glyph unicode="&#xcc;" glyph-name="Igrave" horiz-adv-x="260" d="M64 728H194V0H64V728ZM346 772L237 900H348L427 772H346Z" />
<glyph unicode="&#xcd;" glyph-name="Iacute" horiz-adv-x="260" d="M64 728H194V0H64V728ZM88 772L165 900H276L169 772H88Z" />
<glyph unicode="&#xce;" glyph-name="Icircumflex" horiz-adv-x="260" d="M64 728H194V0H64V728ZM218 772L323 898H447L555 772H455L386 858L318 772H218Z" />
<glyph unicode="&#xcf;" glyph-name="Idieresis" horiz-adv-x="260" d="M64 728H194V0H64V728ZM287 776Q260 776 243 793T225 835Q225 860 242 877T287 895Q314 895 331 877T349 835Q349 810 332 793T287 776ZM484 776Q457 776 440 793T422 835Q422 860 439 877T484
895Q511 895 528 878T546 835Q546 810 529 793T484 776Z" />
<glyph unicode="&#xd0;" glyph-name="Eth" horiz-adv-x="693" d="M235 -4Q183 -4 143 -2T66 2V723Q115 727 169 729T272 731Q401 731 487 688T615 566T657 375Q657 247 609 163T466 38T235 -4ZM261 101Q343 101 401 129T490 218T521 372Q521 455 493 512T411 597T278
626Q257 626 236 626T196 623V103Q211 102 226 102T261 101ZM5 310L11 418H345L339 310H5Z" />
<glyph unicode="&#xd1;" glyph-name="Ntilde" horiz-adv-x="685" d="M64 728H214Q288 592 358 465T499 195H502L497 422V728H619V0H481Q426 100 383 179T304 323T240 441T185 544H183L186 317V0H64V728ZM456 891L513 877Q501 829 475 804T414 778Q394 778 376
786T342 806T313 825T288 834Q276 834 265 822T247 782L189 795Q200 843 226 868T288 894Q308 894 326 886T360 866T389 846T414 838Q426 838 437 850T456 891Z" />
<glyph unicode="&#xd2;" glyph-name="Ograve" horiz-adv-x="717" d="M358 -12Q281 -12 222 16T121 96T58 215T36 364Q36 444 57 512T120 632T221 711T358 740Q436 740 495 712T596 632T659 513T681 364Q681 284 660 216T597 96T496 17T358 -12ZM358 96Q405 96
440 115T499 171T534 256T545 364Q545 423 534 471T500 556T441 612T358 632Q311 632 276 613T218 557T183 472T171 364Q171 305 182 257T217 172T276 116T358 96ZM319 772L210 900H321L400 772H319Z" />
<glyph unicode="&#xd3;" glyph-name="Oacute" horiz-adv-x="717" d="M358 -12Q281 -12 222 16T121 96T58 215T36 364Q36 444 57 512T120 632T221 711T358 740Q436 740 495 712T596 632T659 513T681 364Q681 284 660 216T597 96T496 17T358 -12ZM358 96Q405 96
440 115T499 171T534 256T545 364Q545 423 534 471T500 556T441 612T358 632Q311 632 276 613T218 557T183 472T171 364Q171 305 182 257T217 172T276 116T358 96ZM317 772L394 900H505L398 772H317Z" />
<glyph unicode="&#xd4;" glyph-name="Ocircumflex" horiz-adv-x="717" d="M358 -12Q281 -12 222 16T121 96T58 215T36 364Q36 444 57 512T120 632T221 711T358 740Q436 740 495 712T596 632T659 513T681 364Q681 284 660 216T597 96T496 17T358 -12ZM358 96Q405
96 440 115T499 171T534 256T545 364Q545 423 534 471T500 556T441 612T358 632Q311 632 276 613T218 557T183 472T171 364Q171 305 182 257T217 172T276 116T358 96ZM190 772L295 898H419L527 772H427L358 858L290 772H190Z" />
<glyph unicode="&#xd5;" glyph-name="Otilde" horiz-adv-x="717" d="M358 -12Q281 -12 222 16T121 96T58 215T36 364Q36 444 57 512T120 632T221 711T358 740Q436 740 495 712T596 632T659 513T681 364Q681 284 660 216T597 96T496 17T358 -12ZM358 96Q405 96
440 115T499 171T534 256T545 364Q545 423 534 471T500 556T441 612T358 632Q311 632 276 613T218 557T183 472T171 364Q171 305 182 257T217 172T276 116T358 96ZM463 891L520 877Q508 829 482 804T421 778Q401 778 383 786T349 806T320 825T295 834Q283 834 272
822T254 782L196 795Q207 843 233 868T295 894Q315 894 333 886T367 866T396 846T421 838Q433 838 444 850T463 891Z" />
<glyph unicode="&#xd6;" glyph-name="Odieresis" horiz-adv-x="717" d="M358 -12Q281 -12 222 16T121 96T58 215T36 364Q36 444 57 512T120 632T221 711T358 740Q436 740 495 712T596 632T659 513T681 364Q681 284 660 216T597 96T496 17T358 -12ZM358 96Q405
96 440 115T499 171T534 256T545 364Q545 423 534 471T500 556T441 612T358 632Q311 632 276 613T218 557T183 472T171 364Q171 305 182 257T217 172T276 116T358 96ZM260 776Q233 776 216 793T198 835Q198 860 215 877T260 895Q287 895 304 877T322 835Q322 810
305 793T260 776ZM457 776Q430 776 413 793T395 835Q395 860 412 877T457 895Q484 895 501 878T519 835Q519 810 502 793T457 776Z" />
<glyph unicode="&#xd7;" glyph-name="multiply" horiz-adv-x="576" d="M445 110L81 474L137 530L501 166L445 110ZM81 166L445 530L501 474L137 110L81 166Z" />
<glyph unicode="&#xd8;" glyph-name="Oslash" horiz-adv-x="717" d="M358 -11Q281 -11 222 17T121 97T58 216T36 364Q36 444 57 512T120 631T221 710T358 739Q436 739 495 711T596 631T659 512T681 364Q681 284 660 216T597 97T496 18T358 -11ZM358 96Q405 96
440 116T499 172T534 257T545 364Q545 422 534 471T500 556T441 612T358 632Q311 632 276 612T218 556T183 471T171 364Q171 306 182 257T217 172T276 116T358 96ZM183 -55L110 -22L534 783L607 750L183 -55Z" />
<glyph unicode="&#xd9;" glyph-name="Ugrave" horiz-adv-x="674" d="M337 -12Q249 -12 188 21T94 120T61 287V728H190V279Q190 190 227 142T337 94Q409 94 446 142T483 279V728H612V287Q612 187 580 121T486 21T337 -12ZM296 768L187 896H298L377 768H296Z" />
<glyph unicode="&#xda;" glyph-name="Uacute" horiz-adv-x="674" d="M337 -12Q249 -12 188 21T94 120T61 287V728H190V279Q190 190 227 142T337 94Q409 94 446 142T483 279V728H612V287Q612 187 580 121T486 21T337 -12ZM296 772L373 900H484L377 772H296Z" />
<glyph unicode="&#xdb;" glyph-name="Ucircumflex" horiz-adv-x="674" d="M337 -12Q249 -12 188 21T94 120T61 287V728H190V279Q190 190 227 142T337 94Q409 94 446 142T483 279V728H612V287Q612 187 580 121T486 21T337 -12ZM169 772L274 898H398L506 772H406L337
858L269 772H169Z" />
<glyph unicode="&#xdc;" glyph-name="Udieresis" horiz-adv-x="674" d="M337 -12Q249 -12 188 21T94 120T61 287V728H190V279Q190 190 227 142T337 94Q409 94 446 142T483 279V728H612V287Q612 187 580 121T486 21T337 -12ZM238 776Q211 776 194 793T176 835Q176
860 193 877T238 895Q265 895 282 877T300 835Q300 810 283 793T238 776ZM435 776Q408 776 391 793T373 835Q373 860 390 877T435 895Q462 895 479 878T497 835Q497 810 480 793T435 776Z" />
<glyph unicode="&#xdd;" glyph-name="Yacute" horiz-adv-x="592" d="M232 285L5 728H148L226 550L296 378H298L368 550L447 728H589L362 285V0H232V285ZM256 772L333 900H444L337 772H256Z" />
<glyph unicode="&#xde;" glyph-name="Thorn" horiz-adv-x="583" d="M64 728H193V587Q212 588 236 589T294 591Q380 591 436 565T520 491T549 379Q549 304 518 253T426 174T281 147Q254 147 232 149T193 151V0H64V728ZM266 251Q344 251 381 282T419 374Q419 436
380 462T274 488Q250 488 230 487T193 483V255Q210 253 228 252T266 251Z" />
<glyph unicode="&#xdf;" glyph-name="germandbls" horiz-adv-x="628" d="M389 -11Q353 -11 318 -3T252 19L268 109Q289 100 317 93T373 85Q418 85 442 104T466 151Q466 174 449 193T407 231T356 271T314 321T297 389Q297 430 316 465T367 531T438 588L421 563Q419
615 391 648T310 681Q270 681 248 664T215 617T203 553T200 486V0H70V475Q70 516 74 559T93 641T133 712T201 762T306 781Q381 781 429 755T504 682T535 578Q489 544 456 502T422 414Q422 382 439 360T481 317T531 275T574 223T591 150Q591 99 564 63T492 8T389
-11Z" />
<glyph unicode="&#xe0;" glyph-name="agrave" horiz-adv-x="531" d="M191 -11Q143 -11 108 8T53 62T33 140Q33 182 48 210T89 256T152 280T229 287H340V340Q340 359 337 375T323 405T294 425T243 432Q201 432 160 423T88 400L67 490Q92 502 125 511T194 525T265
531Q327 531 367 518T429 480T460 421T469 344V125Q469 94 470 60T473 0H379L354 71H352Q323 33 282 11T191 -11ZM235 76Q269 76 300 94T342 143V217H249Q234 217 218 215T187 206T164 185T155 147Q155 114 177 95T235 76ZM229 580L121 723H230L310 580H229Z" />
<glyph unicode="&#xe1;" glyph-name="aacute" horiz-adv-x="531" d="M191 -11Q143 -11 108 8T53 62T33 140Q33 182 48 210T89 256T152 280T229 287H340V340Q340 359 337 375T323 405T294 425T243 432Q201 432 160 423T88 400L67 490Q92 502 125 511T194 525T265
531Q327 531 367 518T429 480T460 421T469 344V125Q469 94 470 60T473 0H379L354 71H352Q323 33 282 11T191 -11ZM235 76Q269 76 300 94T342 143V217H249Q234 217 218 215T187 206T164 185T155 147Q155 114 177 95T235 76ZM230 580L309 723H419L311 580H230Z" />
<glyph unicode="&#xe2;" glyph-name="acircumflex" horiz-adv-x="531" d="M191 -11Q143 -11 108 8T53 62T33 140Q33 182 48 210T89 256T152 280T229 287H340V340Q340 359 337 375T323 405T294 425T243 432Q201 432 160 423T88 400L67 490Q92 502 125 511T194 525T265
531Q327 531 367 518T429 480T460 421T469 344V125Q469 94 470 60T473 0H379L354 71H352Q323 33 282 11T191 -11ZM235 76Q269 76 300 94T342 143V217H249Q234 217 218 215T187 206T164 185T155 147Q155 114 177 95T235 76ZM102 580L207 723H331L439 580H339L270
683L202 580H102Z" />
<glyph unicode="&#xe3;" glyph-name="atilde" horiz-adv-x="531" d="M191 -11Q143 -11 108 8T53 62T33 140Q33 182 48 210T89 256T152 280T229 287H340V340Q340 359 337 375T323 405T294 425T243 432Q201 432 160 423T88 400L67 490Q92 502 125 511T194 525T265
531Q327 531 367 518T429 480T460 421T469 344V125Q469 94 470 60T473 0H379L354 71H352Q323 33 282 11T191 -11ZM235 76Q269 76 300 94T342 143V217H249Q234 217 218 215T187 206T164 185T155 147Q155 114 177 95T235 76ZM378 715L441 700Q429 649 401 622T335
594Q313 594 294 603T259 623T228 644T202 653Q191 653 180 640T160 597L97 611Q108 662 136 690T202 718Q224 718 243 710T278 689T309 668T335 659Q348 659 359 672T378 715Z" />
<glyph unicode="&#xe4;" glyph-name="adieresis" horiz-adv-x="531" d="M191 -11Q143 -11 108 8T53 62T33 140Q33 182 48 210T89 256T152 280T229 287H340V340Q340 359 337 375T323 405T294 425T243 432Q201 432 160 423T88 400L67 490Q92 502 125 511T194 525T265
531Q327 531 367 518T429 480T460 421T469 344V125Q469 94 470 60T473 0H379L354 71H352Q323 33 282 11T191 -11ZM235 76Q269 76 300 94T342 143V217H249Q234 217 218 215T187 206T164 185T155 147Q155 114 177 95T235 76ZM171 593Q144 593 127 610T109 653Q109
678 126 695T171 712Q198 712 215 695T233 653Q233 628 216 611T171 593ZM368 593Q341 593 324 610T306 653Q306 678 323 695T368 712Q395 712 412 695T430 653Q430 628 413 611T368 593Z" />
<glyph unicode="&#xe5;" glyph-name="aring" horiz-adv-x="531" d="M191 -11Q143 -11 108 8T53 62T33 140Q33 182 48 210T89 256T152 280T229 287H340V340Q340 359 337 375T323 405T294 425T243 432Q201 432 160 423T88 400L67 490Q92 502 125 511T194 525T265
531Q327 531 367 518T429 480T460 421T469 344V125Q469 94 470 60T473 0H379L354 71H352Q323 33 282 11T191 -11ZM235 76Q269 76 300 94T342 143V217H249Q234 217 218 215T187 206T164 185T155 147Q155 114 177 95T235 76ZM270 792Q227 792 197 822T167 896Q167
924 181 947T218 984T270 998Q298 998 321 984T359 947T373 896Q373 868 359 844T322 806T270 792ZM270 836Q295 836 312 853T329 896Q329 920 312 937T270 954Q246 954 229 937T211 896Q211 871 228 854T270 836Z" />
<glyph unicode="&#xe6;" glyph-name="ae" horiz-adv-x="839" d="M191 -12Q143 -12 108 8T53 62T33 140Q33 182 48 211T89 258T152 283T229 291H340V340Q340 359 337 375T323 405T294 425T243 432Q201 432 160 423T88 400L67 490Q92 502 125 511T194 525T265 531Q323
531 358 518T412 480T437 421T444 344V231Q419 155 390 107T328 33T262 -2T191 -12ZM230 76Q256 76 278 87T318 122T342 188V221H250Q234 221 218 218T187 208T164 186T155 148Q155 113 176 95T230 76ZM604 -12Q517 -12 459 21T372 114T343 256Q343 309 358 358T403
446T480 508T590 531Q654 531 698 508T767 443T800 347T799 227H410L478 277Q465 232 469 196T493 136T545 98T621 85Q661 85 700 93T766 110L780 21Q744 7 697 -2T604 -12ZM411 297H686Q687 305 687 309T687 316Q687 353 677 381T644 425T586 442Q544 442 517
417T478 352T471 265L411 297Z" />
<glyph unicode="&#xe7;" glyph-name="ccedilla" horiz-adv-x="485" d="M300 -11Q220 -11 161 21T68 113T35 258Q35 338 67 399T161 496T313 531Q346 531 384 525T453 505L439 410Q417 419 385 425T319 432Q271 432 237 412T185 353T167 261Q167 205 188 167T245
109T326 89Q362 89 394 96T447 110L458 17Q432 6 388 -2T300 -11ZM263 -236Q239 -236 215 -233T167 -222L187 -181Q205 -184 224 -186T260 -189Q300 -189 319 -176T339 -139Q339 -117 325 -108T288 -99T241 -108L218 -87L260 0H311L279 -66Q315 -61 343 -67T388
-90T405 -136Q405 -182 366 -209T263 -236Z" />
<glyph unicode="&#xe8;" glyph-name="egrave" horiz-adv-x="533" d="M298 -11Q211 -11 153 21T65 114T35 256Q35 312 50 361T97 449T176 509T285 531Q348 531 392 508T461 444T495 349T494 232H104L172 282Q155 219 168 175T219 108T316 85Q356 85 395 93T461
110L475 21Q439 7 392 -2T298 -11ZM105 301H380Q381 306 381 310T381 316Q381 353 371 381T339 425T280 442Q238 442 211 417T172 353T165 270L105 301ZM245 580L137 723H246L326 580H245Z" />
<glyph unicode="&#xe9;" glyph-name="eacute" horiz-adv-x="533" d="M298 -11Q211 -11 153 21T65 114T35 256Q35 312 50 361T97 449T176 509T285 531Q348 531 392 508T461 444T495 349T494 232H104L172 282Q155 219 168 175T219 108T316 85Q356 85 395 93T461
110L475 21Q439 7 392 -2T298 -11ZM105 301H380Q381 306 381 310T381 316Q381 353 371 381T339 425T280 442Q238 442 211 417T172 353T165 270L105 301ZM245 580L324 723H434L326 580H245Z" />
<glyph unicode="&#xea;" glyph-name="ecircumflex" horiz-adv-x="533" d="M298 -11Q211 -11 153 21T65 114T35 256Q35 312 50 361T97 449T176 509T285 531Q348 531 392 508T461 444T495 349T494 232H104L172 282Q155 219 168 175T219 108T316 85Q356 85 395 93T461
110L475 21Q439 7 392 -2T298 -11ZM105 301H380Q381 306 381 310T381 316Q381 353 371 381T339 425T280 442Q238 442 211 417T172 353T165 270L105 301ZM117 580L222 723H346L454 580H354L285 683L217 580H117Z" />
<glyph unicode="&#xeb;" glyph-name="edieresis" horiz-adv-x="533" d="M298 -11Q211 -11 153 21T65 114T35 256Q35 312 50 361T97 449T176 509T285 531Q348 531 392 508T461 444T495 349T494 232H104L172 282Q155 219 168 175T219 108T316 85Q356 85 395 93T461
110L475 21Q439 7 392 -2T298 -11ZM105 301H380Q381 306 381 310T381 316Q381 353 371 381T339 425T280 442Q238 442 211 417T172 353T165 270L105 301ZM187 593Q160 593 143 610T125 653Q125 678 142 695T187 712Q214 712 231 695T249 653Q249 628 232 611T187
593ZM384 593Q357 593 340 610T322 653Q322 678 339 695T384 712Q411 712 428 695T446 653Q446 628 429 611T384 593Z" />
<glyph unicode="&#xec;" glyph-name="igrave" horiz-adv-x="251" d="M60 0V520L190 524V0H60ZM347 847L276 990H384L428 847H347Z" />
<glyph unicode="&#xed;" glyph-name="iacute" horiz-adv-x="251" d="M60 0V520L190 524V0H60ZM332 847L376 990H485L412 847H332Z" />
<glyph unicode="&#xee;" glyph-name="icircumflex" horiz-adv-x="251" d="M60 0V520L190 524V0H60ZM259 847L334 990H427L504 847H428L381 950L334 847H259Z" />
<glyph unicode="&#xef;" glyph-name="idieresis" horiz-adv-x="251" d="M60 0V520L190 524V0H60ZM295 593Q268 593 251 610T233 653Q233 678 250 695T295 712Q321 712 338 695T356 653Q356 628 339 611T295 593ZM466 593Q440 593 423 610T405 653Q405 678 422
695T466 712Q493 712 510 695T528 653Q528 628 511 611T466 593Z" />
<glyph unicode="&#xf0;" glyph-name="eth" horiz-adv-x="558" d="M276 -10Q205 -10 151 19T66 103T35 228Q35 301 65 352T144 430T252 457Q288 457 318 446T370 409L372 411Q351 471 311 518T216 599T100 655L138 736Q223 711 293 667T414 562T493 429T522 272Q522
177 489 114T399 21T276 -10ZM280 85Q336 85 363 128T390 243Q390 281 378 311T342 358T281 375Q241 375 216 353T180 298T168 229Q168 190 181 157T219 105T280 85ZM144 485L106 544L421 729L460 672L144 485Z" />
<glyph unicode="&#xf1;" glyph-name="ntilde" horiz-adv-x="590" d="M62 362Q62 407 62 446T59 520L170 524L179 454H183Q200 470 225 488T284 518T357 531Q398 531 429 517T483 476T516 408T528 315V0H399V311Q399 344 391 366T370 402T341 422T307 428Q281 428
260 419T221 397T191 369V0H62V362ZM413 715L476 700Q464 649 436 622T370 594Q348 594 329 603T294 623T263 644T237 653Q226 653 215 640T195 597L132 611Q143 662 171 690T237 718Q259 718 278 710T313 689T344 668T370 659Q383 659 394 672T413 715Z" />
<glyph unicode="&#xf2;" glyph-name="ograve" horiz-adv-x="584" d="M293 -11Q242 -11 196 5T114 54T57 138T35 260Q35 330 56 381T114 466T196 515T293 531Q343 531 389 515T472 466T529 382T550 260Q550 190 529 139T472 54T390 5T293 -11ZM293 83Q323 83 346
95T385 129T409 184T417 260Q417 303 409 336T385 391T346 425T293 437Q263 437 240 425T201 391T177 336T168 260Q168 217 176 184T201 129T240 95T293 83ZM252 580L144 723H253L333 580H252Z" />
<glyph unicode="&#xf3;" glyph-name="oacute" horiz-adv-x="584" d="M293 -11Q242 -11 196 5T114 54T57 138T35 260Q35 330 56 381T114 466T196 515T293 531Q343 531 389 515T472 466T529 382T550 260Q550 190 529 139T472 54T390 5T293 -11ZM293 83Q323 83 346
95T385 129T409 184T417 260Q417 303 409 336T385 391T346 425T293 437Q263 437 240 425T201 391T177 336T168 260Q168 217 176 184T201 129T240 95T293 83ZM253 580L332 723H442L334 580H253Z" />
<glyph unicode="&#xf4;" glyph-name="ocircumflex" horiz-adv-x="584" d="M293 -11Q242 -11 196 5T114 54T57 138T35 260Q35 330 56 381T114 466T196 515T293 531Q343 531 389 515T472 466T529 382T550 260Q550 190 529 139T472 54T390 5T293 -11ZM293 83Q323
83 346 95T385 129T409 184T417 260Q417 303 409 336T385 391T346 425T293 437Q263 437 240 425T201 391T177 336T168 260Q168 217 176 184T201 129T240 95T293 83ZM125 580L230 723H354L462 580H362L293 683L225 580H125Z" />
<glyph unicode="&#xf5;" glyph-name="otilde" horiz-adv-x="584" d="M293 -11Q242 -11 196 5T114 54T57 138T35 260Q35 330 56 381T114 466T196 515T293 531Q343 531 389 515T472 466T529 382T550 260Q550 190 529 139T472 54T390 5T293 -11ZM293 83Q323 83 346
95T385 129T409 184T417 260Q417 303 409 336T385 391T346 425T293 437Q263 437 240 425T201 391T177 336T168 260Q168 217 176 184T201 129T240 95T293 83ZM402 715L465 700Q453 649 425 622T359 594Q337 594 318 603T283 623T252 644T226 653Q215 653 204 640T184
597L121 611Q132 662 160 690T226 718Q248 718 267 710T302 689T333 668T359 659Q372 659 383 672T402 715Z" />
<glyph unicode="&#xf6;" glyph-name="odieresis" horiz-adv-x="584" d="M293 -11Q242 -11 196 5T114 54T57 138T35 260Q35 330 56 381T114 466T196 515T293 531Q343 531 389 515T472 466T529 382T550 260Q550 190 529 139T472 54T390 5T293 -11ZM293 83Q323 83
346 95T385 129T409 184T417 260Q417 303 409 336T385 391T346 425T293 437Q263 437 240 425T201 391T177 336T168 260Q168 217 176 184T201 129T240 95T293 83ZM194 593Q167 593 150 610T132 653Q132 678 149 695T194 712Q221 712 238 695T256 653Q256 628 239
611T194 593ZM391 593Q364 593 347 610T329 653Q329 678 346 695T391 712Q418 712 435 695T453 653Q453 628 436 611T391 593Z" />
<glyph unicode="&#xf7;" glyph-name="divide" horiz-adv-x="582" d="M52 360H526V280H52V360ZM289 67Q263 67 245 86T226 130Q226 157 244 175T289 193Q316 193 334 175T352 130Q352 105 334 86T289 67ZM289 447Q263 447 245 465T226 510Q226 536 244 554T289
573Q316 573 334 555T352 510Q352 483 334 465T289 447Z" />
<glyph unicode="&#xf8;" glyph-name="oslash" horiz-adv-x="580" d="M92 -25L449 570L492 546L135 -49L92 -25ZM293 -12Q242 -12 196 4T114 54T57 138T35 260Q35 330 56 381T114 466T196 515T293 532Q343 532 389 516T472 466T529 382T550 260Q550 190 529 139T472
54T390 5T293 -12ZM293 83Q323 83 346 94T385 128T409 184T417 260Q417 303 409 336T385 391T346 425T293 437Q263 437 240 426T201 392T177 336T168 260Q168 217 176 184T201 129T240 95T293 83Z" />
<glyph unicode="&#xf9;" glyph-name="ugrave" horiz-adv-x="587" d="M234 -11Q171 -11 133 16T78 94T61 209V520H190V212Q190 154 212 123T284 92Q308 92 328 101T366 123T395 151V520H525V158Q525 113 525 74T527 0H436L409 72H405Q388 53 362 34T304 2T234 -11ZM252
580L144 723H253L333 580H252Z" />
<glyph unicode="&#xfa;" glyph-name="uacute" horiz-adv-x="587" d="M234 -11Q171 -11 133 16T78 94T61 209V520H190V212Q190 154 212 123T284 92Q308 92 328 101T366 123T395 151V520H525V158Q525 113 525 74T527 0H436L409 72H405Q388 53 362 34T304 2T234 -11ZM253
580L332 723H442L334 580H253Z" />
<glyph unicode="&#xfb;" glyph-name="ucircumflex" horiz-adv-x="587" d="M234 -11Q171 -11 133 16T78 94T61 209V520H190V212Q190 154 212 123T284 92Q308 92 328 101T366 123T395 151V520H525V158Q525 113 525 74T527 0H436L409 72H405Q388 53 362 34T304 2T234
-11ZM125 580L230 723H354L462 580H362L293 683L225 580H125Z" />
<glyph unicode="&#xfc;" glyph-name="udieresis" horiz-adv-x="587" d="M234 -11Q171 -11 133 16T78 94T61 209V520H190V212Q190 154 212 123T284 92Q308 92 328 101T366 123T395 151V520H525V158Q525 113 525 74T527 0H436L409 72H405Q388 53 362 34T304 2T234
-11ZM194 593Q167 593 150 610T132 653Q132 678 149 695T194 712Q221 712 238 695T256 653Q256 628 239 611T194 593ZM391 593Q364 593 347 610T329 653Q329 678 346 695T391 712Q418 712 435 695T453 653Q453 628 436 611T391 593Z" />
<glyph unicode="&#xfd;" glyph-name="yacute" horiz-adv-x="511" d="M208 10L252 95L369 520H507L234 -224H99L208 10ZM6 520H143L255 117H288L282 1H191L6 520ZM216 580L295 723H405L297 580H216Z" />
<glyph unicode="&#xfe;" glyph-name="thorn" horiz-adv-x="581" d="M62 -224V748L191 752V455H193Q214 482 254 506T346 531Q409 531 453 499T522 409T546 270Q546 186 518 123T441 24T331 -11Q300 -11 274 -2T228 23T193 58H191V-224H62ZM296 90Q338 90 363 114T401
179T413 264Q413 320 399 356T359 410T300 428Q277 428 257 420T219 397T192 367V174Q196 153 210 134T246 103T296 90Z" />
<glyph unicode="&#xff;" glyph-name="ydieresis" horiz-adv-x="511" d="M208 10L252 95L369 520H507L234 -224H99L208 10ZM6 520H143L255 117H288L282 1H191L6 520ZM158 593Q131 593 114 610T96 653Q96 678 113 695T158 712Q185 712 202 695T220 653Q220 628 203
611T158 593ZM355 593Q328 593 311 610T293 653Q293 678 310 695T355 712Q382 712 399 695T417 653Q417 628 400 611T355 593Z" />
<glyph unicode="&#x2013;" glyph-name="endash" horiz-adv-x="563" d="M45 319H518V233H45V319Z" />
<glyph unicode="&#x2014;" glyph-name="emdash" horiz-adv-x="927" d="M45 318H881V233H45V318Z" />
<glyph unicode="&#x2018;" glyph-name="quoteleft" horiz-adv-x="284" d="M72 474L147 760L242 747L200 474H72Z" />
<glyph unicode="&#x2019;" glyph-name="quoteright" horiz-adv-x="284" d="M137 474L42 488L83 760H211L137 474Z" />
<glyph unicode="&#x201a;" glyph-name="quotesinglbase" horiz-adv-x="284" d="M42 -125L83 148H211L137 -138L42 -125Z" />
<glyph unicode="&#x201c;" glyph-name="quotedblleft" horiz-adv-x="502" d="M290 474L365 760L460 747L419 474H290ZM72 474L147 760L242 747L200 474H72Z" />
<glyph unicode="&#x201d;" glyph-name="quotedblright" horiz-adv-x="502" d="M355 474L260 488L301 760H429L355 474ZM137 474L42 488L83 760H211L137 474Z" />
<glyph unicode="&#x201e;" glyph-name="quotedblbase" horiz-adv-x="502" d="M355 -138L260 -125L301 148H429L355 -138ZM137 -138L42 -125L83 148H211L137 -138Z" />
<glyph unicode="&#x2022;" glyph-name="bullet" horiz-adv-x="360" d="M180 159Q148 159 122 174T80 216T64 275Q64 308 79 334T121 375T180 391Q213 391 239 376T280 334T296 275Q296 243 281 217T239 175T180 159Z" />
<glyph unicode="&#x2039;" glyph-name="guilsinglleft" horiz-adv-x="388" d="M306 46L54 249V331L306 534V429L103 261V319L306 151V46Z" />
<glyph unicode="&#x203a;" glyph-name="guilsinglright" horiz-adv-x="388" d="M82 46V151L286 319V261L82 429V534L335 331V249L82 46Z" />
</font>
</defs>
</svg>
